<?xml version="1.0" standalone="no"?>
<!DOCTYPE svg PUBLIC "-//W3C//DTD SVG 20010904//EN"
 "http://www.w3.org/TR/2001/REC-SVG-20010904/DTD/svg10.dtd">
<svg version="1.0" xmlns="http://www.w3.org/2000/svg"
 width="740.000000pt" height="416.000000pt" viewBox="0 0 740.000000 416.000000"
 preserveAspectRatio="xMidYMid meet">

<g transform="translate(0.000000,416.000000) scale(0.100000,-0.100000)"
fill="#000000" stroke="none">
<path d="M0 2080 l0 -2080 3700 0 3700 0 0 2080 0 2080 -3700 0 -3700 0 0
-2080z m5398 2053 c-10 -2 -28 -2 -40 0 -13 2 -5 4 17 4 22 1 32 -1 23 -4z
m-128 -7 c0 -6 -93 -37 -97 -32 -2 2 15 11 39 19 47 17 58 19 58 13z m1775
-154 c19 4 25 2 21 -8 -7 -18 -1 -18 18 2 17 17 36 11 36 -12 0 -8 -8 -14 -17
-15 -10 0 -44 -3 -75 -5 -42 -4 -58 -2 -58 7 0 18 34 48 41 36 4 -5 19 -7 34
-5z m168 -8 c15 -16 -8 -34 -44 -34 -42 0 -42 0 -33 24 6 16 64 23 77 10z
m-2903 -468 c8 0 28 6 44 13 39 16 82 6 90 -22 6 -23 -4 -40 -11 -19 -3 6 -13
12 -22 12 -21 0 -50 -48 -35 -58 6 -4 3 -25 -7 -55 -13 -39 -17 -45 -22 -28
-5 22 -6 21 -31 -4 -14 -14 -26 -32 -26 -39 0 -8 -7 -16 -15 -20 -9 -3 -15 0
-15 9 0 8 -4 15 -10 15 -5 0 -10 -15 -10 -32 0 -24 -3 -29 -10 -18 -12 20 -23
6 -23 -30 0 -16 -3 -27 -7 -25 -11 7 -74 -19 -87 -35 -6 -8 -15 -36 -18 -62
-5 -35 -10 -45 -21 -41 -8 3 -14 15 -14 28 0 27 -20 86 -34 101 -8 9 -14 5
-23 -15 l-11 -26 -1 30 c-1 23 -4 27 -11 15 -5 -8 -10 -10 -10 -5 -1 6 -6 -1
-12 -15 l-10 -25 -14 30 c-7 17 -13 24 -14 17 0 -7 -11 -17 -25 -22 -15 -6
-25 -17 -25 -30 0 -24 18 -27 27 -3 6 15 7 15 14 -3 11 -28 11 -56 -1 -49 -16
10 -23 -22 -12 -52 7 -18 11 -21 11 -10 1 9 6 17 11 17 6 0 10 7 10 15 0 14
12 20 33 16 5 -1 11 8 14 19 3 11 9 20 15 20 5 0 4 -8 -2 -19 -13 -25 -13 -81
0 -81 6 0 10 7 10 17 0 13 3 12 19 -6 15 -18 20 -19 25 -6 3 8 12 15 21 15 19
0 21 -90 3 -108 -10 -10 -10 -15 2 -22 10 -6 11 -10 3 -10 -7 0 -10 -7 -7 -15
4 -9 0 -15 -9 -15 -18 0 -30 27 -17 35 14 8 13 62 -1 71 -7 4 -10 -4 -9 -22 3
-44 1 -50 -13 -33 -16 21 -47 32 -47 16 0 -8 -4 -6 -10 3 -8 12 -10 12 -11 -5
0 -13 -3 -15 -6 -6 -3 7 6 24 21 38 24 22 34 43 21 43 -3 0 -18 -12 -33 -27
-25 -24 -28 -34 -24 -71 3 -26 9 -41 16 -39 6 2 10 11 8 20 -1 8 2 18 8 22 5
3 10 3 11 -2 1 -4 3 -25 4 -46 4 -33 2 -36 -11 -22 -18 17 -34 20 -34 5 0 -5
5 -10 10 -10 6 0 10 -7 10 -16 0 -9 -7 -14 -17 -12 -11 2 -18 12 -17 25 0 12
-3 20 -7 18 -4 -3 -10 5 -14 18 -21 61 -23 62 -24 22 0 -22 6 -48 13 -58 7 -9
11 -29 8 -43 -3 -19 -1 -25 7 -20 6 4 11 0 12 -11 1 -17 2 -17 6 0 3 10 11 16
18 13 8 -3 16 0 18 7 7 21 17 2 10 -21 -3 -13 -13 -22 -24 -22 -12 0 -19 -7
-19 -20 0 -11 -4 -20 -10 -20 -16 0 -12 -18 10 -40 11 -11 29 -20 40 -20 11 0
23 -7 27 -15 7 -19 -5 -34 -15 -19 -4 6 -17 10 -29 10 -18 0 -21 -5 -18 -30 2
-16 8 -32 13 -35 13 -9 25 -64 12 -56 -5 3 -10 -1 -10 -9 0 -9 -5 -16 -11 -16
-7 0 -10 12 -7 30 3 17 1 30 -3 30 -5 0 -6 6 -3 14 3 8 1 23 -5 33 -9 15 -10
12 -10 -17 1 -38 16 -134 18 -111 2 20 31 -7 30 -28 -1 -13 -2 -13 -6 2 -2 9
-9 15 -14 12 -12 -8 -12 -72 1 -80 6 -3 10 -15 10 -26 0 -11 5 -17 10 -14 6 4
8 11 4 16 -3 5 4 24 15 43 11 18 17 37 13 41 -4 5 -2 5 5 2 22 -13 43 4 38 32
-3 14 -2 20 1 14 4 -9 11 -10 25 -3 17 9 19 7 20 -17 2 -24 2 -25 6 -5 7 35
22 26 35 -22 6 -25 15 -43 19 -40 15 9 -28 124 -47 124 -20 0 -3 58 20 65 13
4 16 8 9 12 -7 2 -13 13 -13 24 0 10 -4 19 -10 19 -5 0 -10 7 -10 15 0 8 -4
15 -10 15 -5 0 -11 15 -11 33 -2 30 -2 30 -6 4 -2 -15 -9 -25 -14 -22 -10 7
-2 53 14 73 9 12 20 9 23 -6 6 -26 18 -52 25 -52 4 0 13 8 18 18 8 13 10 8 6
-23 -2 -21 1 -45 7 -52 6 -7 7 -28 4 -48 -4 -22 -3 -35 4 -35 5 0 10 15 10 33
0 17 4 38 9 45 10 16 25 -35 26 -88 0 -24 4 -34 13 -32 8 1 11 -2 7 -8 -4 -6
-1 -17 5 -25 10 -12 10 -15 1 -15 -7 0 -11 -10 -9 -22 2 -15 9 -22 21 -22 11
1 17 -5 17 -17 0 -16 3 -18 19 -9 30 16 35 12 17 -15 -15 -22 -15 -25 -1 -25
14 0 14 -3 -1 -25 -9 -14 -13 -25 -9 -25 5 0 0 -9 -11 -21 -14 -16 -19 -39
-21 -102 -1 -45 -7 -83 -13 -85 -18 -6 -10 -19 12 -18 15 1 23 -7 28 -26 7
-25 6 -26 -24 -24 -17 2 -34 4 -38 5 -3 0 -10 31 -13 69 -4 37 -9 70 -12 74
-6 12 -33 -3 -33 -18 0 -8 -4 -14 -10 -14 -10 0 -32 35 -25 42 2 2 -7 4 -20 4
-14 0 -24 -5 -21 -10 2 -6 9 -10 15 -9 6 2 11 -6 11 -16 0 -11 4 -22 9 -26 5
-3 7 -21 4 -40 -6 -35 1 -42 26 -26 9 6 10 11 2 15 -16 10 -13 36 4 36 8 0 15
-7 15 -15 0 -8 5 -15 10 -15 6 0 10 -13 10 -30 0 -16 4 -30 9 -30 4 0 6 -11 3
-25 -2 -14 0 -25 6 -25 13 0 24 29 15 43 -4 7 0 6 10 -1 9 -8 22 -10 28 -6 8
5 11 1 7 -13 -4 -16 -2 -19 13 -16 11 3 19 10 19 16 0 7 4 7 12 -1 9 -9 5 -16
-16 -33 -34 -27 -27 -36 11 -14 l28 17 -29 -25 c-17 -14 -33 -24 -37 -21 -4 2
-11 -1 -14 -7 -4 -5 -13 -8 -21 -5 -9 3 -14 -1 -14 -13 0 -10 -6 -21 -14 -24
-7 -3 -19 -36 -27 -73 -7 -38 -20 -75 -29 -84 -10 -10 -16 -39 -17 -94 -1 -43
-4 -81 -7 -84 -3 -3 -6 -14 -6 -25 0 -14 -5 -17 -17 -12 -15 5 -16 4 -5 -6 6
-7 12 -27 12 -43 0 -24 -3 -27 -10 -16 -8 12 -10 9 -10 -12 0 -30 -9 -35 -27
-17 -7 7 -13 7 -17 1 -7 -11 40 -26 54 -17 16 10 12 -2 -7 -20 -10 -10 -12
-19 -6 -23 5 -4 12 -15 16 -25 4 -10 11 -15 17 -12 15 9 12 -8 -5 -31 -12 -16
-14 -17 -15 -2 0 21 -19 27 -48 17 -20 -8 -24 -5 -34 21 -5 17 -14 30 -20 30
-6 0 -7 7 -4 15 4 11 -3 19 -20 25 -14 6 -26 10 -27 10 -6 0 0 -48 8 -60 5 -9
4 -11 -3 -6 -7 4 -12 1 -12 -8 0 -17 28 -11 43 8 5 7 7 2 4 -11 -3 -12 -1 -23
4 -25 10 -3 14 -97 10 -245 -2 -85 -4 -92 -24 -95 -13 -2 -23 -12 -27 -27 -3
-13 -14 -29 -25 -35 -10 -6 -25 -17 -33 -24 -29 -27 -54 -35 -63 -21 -7 11 -9
10 -9 -5 0 -15 -3 -16 -14 -7 -11 9 -15 8 -20 -5 -5 -12 -14 -15 -36 -11 -50
10 -54 12 -95 37 -22 14 -42 25 -45 26 -32 3 -69 17 -65 24 3 4 -2 13 -10 20
-8 7 -12 16 -9 21 3 5 2 14 -1 20 -4 6 -7 44 -8 85 0 41 -4 74 -8 74 -5 0 -7
15 -5 33 3 17 8 55 11 82 8 59 14 72 26 54 6 -10 9 -11 9 -1 0 6 9 12 19 12
42 0 33 56 -10 62 -35 5 -43 0 -27 -19 10 -12 8 -14 -7 -11 -11 1 -20 -1 -21
-7 -3 -29 -17 -65 -26 -65 -6 0 -8 7 -4 15 3 9 0 15 -9 15 -9 0 -12 -6 -8 -17
4 -10 2 -14 -5 -10 -6 4 -13 21 -17 37 -4 17 -16 35 -27 41 -24 13 -40 1 -15
-12 10 -6 16 -19 14 -32 -2 -12 -2 -16 0 -10 3 7 8 13 13 13 9 0 7 -46 -2 -56
-3 -3 -4 -13 -1 -23 3 -13 11 -17 29 -13 21 4 24 1 24 -26 0 -17 3 -39 7 -49
6 -15 4 -16 -8 -6 -12 10 -15 8 -16 -7 -1 -13 3 -17 14 -13 12 5 15 2 10 -10
-4 -12 -1 -17 11 -18 15 -1 16 -2 0 -6 -13 -3 -16 -14 -13 -49 1 -25 8 -51 14
-57 6 -6 11 -27 10 -46 -1 -35 -1 -36 -12 -11 -7 14 -18 26 -25 28 -16 3 -15
-4 4 -33 9 -14 14 -32 10 -40 -3 -10 -2 -13 4 -10 6 4 17 -9 25 -29 8 -19 26
-47 40 -62 18 -19 22 -30 15 -39 -14 -16 -50 -7 -50 12 0 10 -6 12 -20 8 -11
-4 -20 -2 -20 4 0 6 -7 8 -15 5 -8 -4 -15 -1 -15 5 0 17 -14 13 -40 -9 -13
-11 -35 -20 -49 -20 l-26 0 25 19 c13 11 28 17 32 15 3 -2 10 1 14 7 4 7 19 9
38 5 31 -6 31 -6 8 10 -18 12 -26 13 -37 4 -16 -13 -35 -5 -35 14 0 8 -17 16
-40 20 -23 3 -38 10 -35 15 3 5 14 7 25 4 11 -3 20 0 20 6 0 6 -17 11 -38 11
-21 0 -44 6 -51 13 -10 10 -15 8 -27 -7 -8 -11 -14 -15 -14 -9 0 14 35 53 49
53 6 0 11 8 11 18 -1 24 -24 52 -44 52 -14 0 -21 13 -13 23 1 2 -6 12 -16 21
-20 21 -18 29 7 20 9 -3 16 -14 16 -24 0 -13 5 -17 20 -13 29 8 70 -5 70 -22
0 -9 10 -15 25 -15 14 0 25 5 25 10 0 6 -9 10 -20 10 -11 0 -20 7 -20 15 0 10
-10 15 -29 15 -17 0 -46 9 -66 21 -40 24 -89 20 -79 -6 4 -9 0 -15 -10 -15 -9
0 -15 6 -14 13 2 7 -6 11 -20 10 -13 -2 -21 1 -18 6 4 5 0 12 -6 15 -7 4 2 4
20 1 26 -4 32 -1 32 14 0 10 -7 21 -15 25 -22 8 -18 26 5 26 22 0 27 15 8 23
-7 3 6 6 30 6 52 1 57 21 5 21 -32 1 -35 2 -19 11 10 6 36 11 57 11 21 -1 41
3 44 9 6 9 -7 13 -35 10 -9 -1 -11 1 -5 6 6 4 11 19 13 32 l2 25 -18 -22 c-21
-24 -32 -28 -32 -12 0 5 14 22 30 37 36 31 37 41 9 52 -21 7 -21 8 5 28 15 12
23 24 18 27 -5 3 -16 -3 -25 -12 -22 -24 -40 -37 -58 -44 -13 -5 -16 -2 -12
13 6 21 -3 19 -74 -14 -13 -6 -26 -7 -29 -4 -4 4 13 15 37 26 38 16 41 20 24
27 -11 4 -25 15 -32 23 -7 9 -13 12 -13 7 0 -5 7 -18 17 -28 9 -11 11 -18 5
-18 -7 0 -12 5 -12 10 0 6 -9 10 -20 10 -27 0 -29 50 -2 51 19 1 11 4 -30 13
-16 4 -28 13 -28 20 0 9 -7 12 -20 9 -16 -4 -19 -2 -14 11 5 12 0 16 -17 16
-13 0 -43 9 -67 20 -23 10 -45 19 -47 20 -16 1 -42 26 -38 36 3 9 10 7 24 -7
10 -10 26 -19 34 -19 8 0 15 -4 15 -8 0 -5 21 -9 48 -8 26 0 39 2 30 4 -10 2
-18 8 -18 13 0 5 -7 9 -15 9 -18 0 -19 12 -4 27 7 7 2 12 -18 18 -58 14 -75
53 -20 49 17 -2 23 -1 12 3 -11 3 -23 9 -26 15 -9 14 -79 23 -79 9 0 -6 9 -11
19 -11 27 0 35 -17 11 -23 -23 -6 -45 16 -36 38 3 9 0 15 -10 15 -8 0 -12 -5
-9 -10 3 -5 0 -10 -7 -10 -9 0 -9 -3 2 -10 13 -8 12 -10 -2 -10 -10 0 -18 5
-18 10 0 6 -7 10 -16 10 -8 0 -12 5 -9 11 4 6 14 8 24 5 12 -5 11 -2 -3 9 -11
8 -26 15 -34 15 -9 0 -12 6 -8 15 4 13 2 13 -14 5 -29 -16 -35 -12 -15 10 10
11 22 17 26 14 5 -3 9 -1 9 4 0 6 -11 13 -25 16 -26 7 -65 35 -65 48 0 4 28 5
63 3 43 -4 56 -2 42 4 -11 5 -14 10 -7 10 19 1 14 21 -5 21 -14 0 -15 2 -5 9
11 6 10 10 -3 15 -14 5 -16 2 -13 -19 6 -28 -3 -31 -51 -14 -39 14 -40 29 -1
29 17 0 30 5 30 10 0 6 -11 10 -25 10 -36 0 -31 16 8 25 24 5 28 8 15 13 -12
5 -14 11 -9 21 5 8 16 11 25 8 8 -3 18 -2 21 4 4 5 3 9 -2 8 -4 -1 -12 0 -18
1 -5 1 16 8 49 15 51 11 61 11 77 -3 11 -9 19 -22 19 -30 0 -20 50 -125 56
-119 3 3 0 15 -6 27 -6 11 -10 29 -8 38 3 11 9 4 18 -20 8 -21 17 -38 22 -38
4 0 14 -12 22 -27 22 -40 21 -3 -1 42 -13 28 -14 38 -4 48 10 9 11 9 6 -4 -5
-13 -1 -16 20 -14 21 3 29 -4 45 -35 10 -20 16 -41 12 -44 -3 -4 1 -4 11 0 10
3 17 1 17 -6 0 -22 33 -45 67 -46 18 -1 33 3 33 9 0 5 12 7 26 4 18 -3 24 -1
20 9 -4 9 2 14 16 14 17 0 18 2 8 15 -10 12 -10 15 3 15 8 0 17 5 19 11 2 5
11 7 21 4 9 -4 14 -11 11 -16 -3 -5 -2 -8 3 -7 4 1 18 -2 31 -6 28 -9 26 -43
-2 -38 -14 3 -17 -1 -13 -12 14 -37 -140 -43 -223 -9 -30 13 -71 24 -90 26
-24 3 -38 11 -45 25 -5 12 -19 22 -30 22 -20 0 -20 -1 1 -18 12 -9 24 -26 28
-36 3 -10 9 -16 13 -12 3 3 13 -3 20 -14 37 -53 183 -93 330 -91 54 1 87 -29
77 -72 -5 -22 0 -33 20 -52 14 -13 26 -34 26 -45 0 -12 4 -19 9 -16 5 3 11 -3
14 -14 3 -11 1 -20 -4 -20 -5 0 -9 -9 -9 -20 0 -11 5 -20 10 -20 7 0 7 -7 -1
-21 -12 -23 -6 -33 29 -44 18 -5 22 -2 22 15 0 12 5 18 10 15 15 -9 12 14 -4
31 -11 10 -15 11 -19 1 -3 -9 -8 -9 -17 -1 -9 9 -9 17 -1 32 13 24 15 92 2 92
-13 0 -39 104 -34 134 3 15 1 26 -6 26 -7 0 -11 21 -11 54 0 63 -21 118 -56
148 -13 12 -22 28 -20 34 3 8 -10 15 -36 19 -26 5 -36 10 -28 15 7 5 20 6 28
2 11 -4 13 -1 7 7 -4 7 -18 11 -31 8 -12 -2 -29 0 -36 4 -9 6 -6 9 10 9 l23 0
-25 24 c-30 27 -32 36 -10 36 9 0 18 -9 21 -21 4 -15 11 -19 25 -15 24 6 50
-3 43 -14 -6 -9 33 -40 48 -40 5 0 4 7 -3 15 -10 12 -10 15 3 15 9 0 21 -8 26
-17 10 -17 10 -17 11 -1 0 9 -4 20 -10 23 -5 3 -10 10 -10 16 0 15 19 10 41
-12 11 -11 23 -18 27 -15 3 4 0 12 -6 18 -7 7 -12 19 -12 28 0 13 2 13 11 0 8
-12 10 -11 7 5 -2 11 -7 18 -12 17 -5 -2 -13 2 -18 10 -8 10 -9 9 -4 -4 9 -31
-11 -29 -44 3 -17 18 -29 38 -26 45 3 7 0 16 -6 20 -7 5 -9 -2 -6 -19 3 -16 1
-24 -7 -21 -13 6 -11 65 5 94 7 13 7 20 0 20 -5 0 -10 5 -10 10 0 6 7 10 15
10 17 0 18 4 9 38 -4 12 -12 22 -20 22 -7 0 -18 8 -23 18 -11 21 -3 71 9 52 5
-8 11 -6 20 5 9 11 9 15 1 15 -7 0 -9 4 -6 10 3 5 8 18 10 28 11 60 27 102 37
96 7 -4 6 -10 -3 -16 -10 -6 -7 -7 9 -3 14 4 22 2 22 -6 0 -6 7 -17 15 -23 8
-6 18 -25 21 -43 5 -25 3 -32 -12 -36 -16 -4 -15 -5 4 -6 15 -1 22 -7 22 -20
0 -10 7 -21 15 -25 10 -3 15 -20 16 -48 1 -54 10 -80 26 -70 13 8 7 52 -8 52
-13 0 5 137 30 215 7 22 9 25 10 9 1 -32 14 -37 28 -12 10 18 12 19 13 6 0
-30 31 -58 51 -47 14 7 19 4 22 -14 2 -12 2 -6 0 13 -2 19 -4 53 -5 75 l0 40
-10 -35 c-14 -50 -26 -58 -34 -24 -4 16 -13 38 -19 49 -7 12 -9 30 -5 45 8 24
15 11 10 -19 -1 -9 4 -12 15 -7 15 5 17 1 12 -31 l-6 -38 13 40 c9 29 10 42 2
47 -8 5 -7 11 2 20 6 6 12 20 12 31 0 12 6 17 18 15 9 -2 16 -11 16 -21 -1 -9
2 -17 7 -17 13 0 11 24 -5 55 -9 17 -16 22 -19 13 -3 -7 -6 0 -6 15 -1 18 3
26 10 21 8 -5 8 -1 0 14 -8 14 -8 28 -1 44 10 23 11 23 6 1 -6 -31 2 -29 14 2
5 14 13 24 18 23 20 -7 59 50 66 96 5 30 4 46 -2 42 -5 -3 -13 6 -17 21 -6 25
-8 26 -17 10 -5 -10 -7 -25 -4 -33 3 -8 -1 -17 -9 -20 -8 -4 -15 -17 -15 -29
0 -13 -4 -27 -10 -30 -5 -3 -10 -17 -10 -31 0 -13 -4 -24 -10 -24 -13 0 -13
11 1 66 9 34 9 47 -1 59 -7 8 -16 12 -21 9 -5 -3 -9 4 -9 15 0 10 -4 21 -8 23
-5 2 -7 21 -4 43 4 32 6 36 13 20 4 -11 8 -35 8 -53 1 -36 20 -35 22 1 1 17 2
18 6 5 2 -10 8 -18 13 -18 5 0 7 7 4 15 -4 9 -1 15 7 15 8 0 3 10 -11 24 -17
16 -28 20 -33 12 -5 -6 -6 7 -3 29 3 22 6 51 7 65 0 23 1 23 9 5 7 -18 8 -18
15 -3 4 11 1 24 -9 33 -15 15 -17 15 -22 1 -8 -21 -24 -21 -24 0 0 13 -6 15
-27 9 -16 -3 -29 -11 -31 -16 -2 -5 -10 -9 -17 -9 -7 0 -15 -7 -19 -15 -3 -8
-13 -15 -23 -14 -11 0 -13 3 -5 6 17 7 15 23 -4 23 -15 0 -15 2 -1 23 13 21
13 25 -5 47 -14 18 -28 24 -49 22 -20 -3 -29 1 -29 11 0 11 -11 15 -37 14 -20
-1 -38 4 -41 11 -2 7 -8 12 -13 12 -15 0 -46 32 -53 55 -3 11 1 32 9 47 15 31
10 94 -10 101 -9 4 -9 -5 -2 -39 8 -32 7 -48 -1 -56 -15 -15 -42 -2 -42 22 0
11 -4 20 -9 20 -11 0 -42 91 -35 102 3 4 12 8 20 8 8 0 13 -4 9 -9 -7 -12 26
-45 34 -34 3 4 13 9 21 11 8 2 17 8 18 13 2 5 11 9 20 9 13 0 13 -2 -3 -14
-18 -13 -18 -14 0 -52 16 -35 19 -37 27 -19 6 16 7 14 3 -7 -3 -16 -1 -28 4
-28 13 0 24 31 22 59 -2 15 1 21 9 16 6 -4 9 -13 6 -21 -3 -8 -1 -14 4 -14 5
0 7 -7 4 -15 -5 -12 0 -14 30 -10 30 5 36 3 37 -12 1 -17 2 -17 6 0 5 19 23
24 23 6 0 -8 4 -8 14 1 8 6 23 10 33 8 10 -1 23 0 28 4 6 3 19 0 30 -8 19 -14
18 -15 -25 -18 -8 -1 -15 -7 -14 -14 1 -6 2 -19 3 -27 1 -19 31 -20 31 -1 0 7
9 16 20 19 11 3 20 1 20 -4 0 -20 26 -7 43 22 21 37 22 53 3 46 -13 -5 -30 16
-21 25 2 2 24 2 49 0 38 -3 46 -8 54 -30 9 -26 9 -27 16 -5 6 18 12 21 35 17
24 -5 29 -2 35 20 9 35 24 33 19 -1 -3 -16 -1 -23 4 -17 11 16 52 12 62 -5 7
-11 11 -10 19 5 10 19 26 13 28 -9 0 -7 2 -20 2 -30 2 -17 3 -17 27 0 24 18
34 43 15 43 -5 0 -13 -7 -18 -16 -5 -10 -12 -12 -15 -7 -4 6 2 18 12 27 14 13
24 14 44 7 28 -11 45 -31 26 -31 -10 0 -10 -3 -2 -11 7 -7 22 -9 40 -4 15 4
54 8 87 9 58 2 59 3 110 59 47 53 51 56 56 35 3 -13 12 -23 20 -22z m-1210 9
c0 -8 -6 -15 -14 -15 -7 0 -19 7 -26 15 -11 13 -8 15 14 15 16 0 26 -5 26 -15z
m1374 0 c-4 -8 -11 -15 -16 -15 -6 0 -5 6 2 15 7 8 14 15 16 15 2 0 1 -7 -2
-15z m-934 -65 c0 -5 -4 -10 -10 -10 -5 0 -10 5 -10 10 0 6 5 10 10 10 6 0 10
-4 10 -10z m873 -5 c-3 -9 -8 -14 -10 -11 -3 3 -2 9 2 15 9 16 15 13 8 -4z
m-2089 -301 c17 -7 22 -59 7 -82 -6 -10 -11 -5 -20 19 -9 25 -8 34 1 41 10 6
10 8 1 8 -7 0 -13 5 -13 10 0 12 3 12 24 4z m1253 -66 c-3 -7 -5 -2 -5 12 0
14 2 19 5 13 2 -7 2 -19 0 -25z m1614 8 c-6 -8 -11 -18 -10 -22 1 -5 1 -20 0
-34 l-1 -25 -20 25 c-24 31 -25 46 -2 59 27 16 47 14 33 -3z m-1637 -22 c3 -8
2 -12 -3 -9 -5 3 -12 1 -16 -5 -3 -5 -1 -10 4 -10 6 0 11 -5 11 -11 0 -5 -5
-7 -11 -3 -6 3 -15 1 -19 -7 -7 -10 -12 -10 -23 -1 -7 7 -17 9 -21 5 -4 -4 -4
0 0 10 3 9 12 17 20 17 8 0 14 5 14 11 0 5 4 8 9 4 5 -3 12 -1 16 5 8 14 12
13 19 -6z m-76 -65 c-2 -6 -8 -10 -13 -10 -5 0 -11 4 -13 10 -2 6 4 11 13 11
9 0 15 -5 13 -11z m43 -95 c-12 -19 -20 -47 -18 -62 1 -15 -2 -28 -7 -29 -5
-1 -13 -7 -17 -15 -7 -11 -9 -11 -9 1 0 7 -6 11 -14 8 -11 -4 -12 2 -4 36 11
51 14 54 23 27 4 -13 3 -25 -3 -29 -7 -4 -8 -12 -2 -21 7 -11 10 -8 15 12 4
15 4 32 0 38 -10 16 5 52 20 46 16 -6 24 13 27 62 l1 37 4 -38 c3 -26 -2 -49
-16 -73z m49 14 c0 -18 -2 -20 -9 -8 -6 8 -7 18 -5 22 9 14 14 9 14 -14z m-23
-55 c1 -37 1 -37 -8 -9 -7 25 -5 46 5 46 2 0 3 -17 3 -37z m-17 -33 c0 -49
-15 -47 -17 3 -1 33 2 45 8 36 5 -8 9 -25 9 -39z m472 28 c-7 -7 -12 -8 -12
-2 0 6 3 14 7 17 3 4 9 5 12 2 2 -3 -1 -11 -7 -17z m111 -25 c-6 -42 -15 -56
-38 -59 -9 -1 -15 6 -15 17 0 22 -11 24 -28 7 -17 -17 -25 -4 -17 31 9 43 43
43 52 1 7 -39 27 -33 31 8 2 18 7 32 12 32 5 0 6 -17 3 -37z m-116 -50 c-3
-10 -5 -4 -5 12 0 17 2 24 5 18 2 -7 2 -21 0 -30z m-500 -85 c-5 -24 -13 -45
-17 -48 -3 -3 -10 -14 -14 -25 -5 -13 -10 -16 -13 -7 -3 6 -9 10 -14 6 -14 -8
-11 -34 4 -31 7 1 11 -7 9 -23 -6 -39 16 -12 27 35 10 40 10 40 5 -9 -3 -27
-10 -61 -16 -75 -6 -14 -12 -37 -14 -50 -2 -13 -8 -27 -14 -31 -7 -4 -11 -16
-10 -26 1 -11 1 -28 0 -39 -2 -14 -4 -12 -9 9 -3 17 -10 29 -14 27 -30 -8 -80
186 -56 215 7 8 18 13 25 10 7 -3 25 9 39 25 14 17 25 27 25 22 0 -4 6 3 13
17 8 14 19 24 25 23 7 -2 12 11 13 35 1 35 1 35 9 10 5 -16 4 -45 -3 -70z m38
48 c-4 -20 -11 -34 -15 -31 -4 2 -2 20 4 39 13 44 19 39 11 -8z m505 8 c0 -8
-4 -12 -10 -9 -5 3 -10 10 -10 16 0 5 5 9 10 9 6 0 10 -7 10 -16z m-474 -61
c-2 -47 -5 -57 -18 -55 -9 1 -19 -5 -22 -15 -2 -10 -2 5 1 32 12 103 42 132
39 38z m418 -4 l-7 -44 -13 30 -13 30 -1 -30 c-1 -29 -2 -30 -13 -7 -7 16 -7
26 0 30 5 4 13 14 16 22 4 12 6 11 6 -2 1 -26 21 -22 21 4 0 12 2 19 5 16 3
-3 2 -25 -1 -49z m43 19 c-3 -8 -6 -5 -6 6 -1 11 2 17 5 13 3 -3 4 -12 1 -19z
m-1607 -73 c0 -6 14 -16 30 -22 17 -6 30 -16 30 -22 0 -6 -13 -11 -30 -11 -34
0 -41 -19 -10 -27 18 -5 25 -15 21 -36 -1 -4 6 -15 14 -24 14 -14 14 -16 -2
-28 -17 -13 -16 -15 13 -27 17 -7 29 -19 27 -25 -3 -7 0 -13 6 -13 6 0 11 -4
11 -10 0 -5 -9 -10 -21 -10 -11 0 -18 -4 -14 -10 3 -5 12 -7 19 -4 7 3 20 -6
29 -19 14 -22 14 -23 -6 -23 -18 1 -22 -5 -23 -29 -1 -16 -2 -33 -2 -37 -1 -5
-2 -11 -1 -15 0 -3 -12 -12 -28 -19 l-28 -12 34 -8 35 -7 -45 -13 c-59 -18
-59 -18 -49 17 8 29 8 30 -18 28 -15 -1 -36 -1 -47 0 -19 2 -19 3 3 11 12 5
22 14 22 20 0 14 -43 13 -58 -2 -9 -9 -12 -8 -12 5 0 9 5 17 10 17 6 0 10 5
10 10 0 6 -7 10 -15 10 -8 0 -15 4 -15 8 0 4 17 7 38 5 30 -3 33 -1 15 6 -16
7 -21 18 -20 45 1 22 6 36 14 36 6 0 15 16 19 35 3 20 13 43 21 50 8 8 10 15
4 15 -6 0 -11 6 -11 14 0 7 -9 20 -20 27 -19 14 -19 16 -3 64 9 28 18 56 20
64 3 11 7 10 18 -5 8 -10 15 -24 15 -29z m1607 -47 c-3 -8 -6 -5 -6 6 -1 11 2
17 5 13 3 -3 4 -12 1 -19z m1099 -28 c12 -40 11 -45 -6 -60 -11 -9 -22 -34
-25 -56 -6 -32 -3 -44 18 -67 17 -21 24 -39 23 -70 -1 -23 -5 -48 -9 -54 -5
-8 -4 -13 2 -13 16 0 13 -29 -5 -48 -15 -14 -15 -17 0 -28 19 -13 11 -44 -10
-44 -8 0 -17 -7 -20 -15 -4 -8 -13 -15 -21 -15 -8 0 -12 4 -9 9 3 5 -4 11 -17
15 -35 9 -47 7 -47 -9 0 -8 9 -15 21 -15 30 0 59 -18 59 -38 0 -13 -2 -14 -8
-4 -5 7 -16 10 -25 6 -9 -3 -25 -3 -34 0 -15 6 -15 8 -3 16 12 8 11 10 -5 11
-11 1 -29 1 -40 0 -15 -2 -17 0 -6 7 21 15 -12 22 -107 25 -44 1 -78 5 -75 10
2 4 -6 7 -19 7 -22 0 -63 19 -43 20 6 0 4 4 -3 9 -11 7 -10 9 3 14 9 4 13 3
10 -3 -3 -5 14 -14 37 -20 24 -6 60 -16 81 -22 28 -9 43 -9 56 -1 11 7 23 8
32 2 20 -12 32 -11 23 2 -5 9 1 10 20 5 39 -10 31 10 -11 27 -36 15 -32 21 12
18 17 -1 17 1 -4 9 -14 6 -21 16 -18 24 3 8 -2 17 -11 21 -16 6 -16 7 1 19 19
15 23 36 6 36 -6 0 -8 9 -4 20 5 16 2 20 -14 20 -19 0 -20 2 -9 23 17 30 30
38 50 31 24 -7 45 6 27 17 -10 6 -11 9 -1 9 19 0 14 20 -5 21 -10 0 -2 7 17
14 29 11 31 14 11 14 -16 1 -21 5 -18 15 3 8 1 17 -6 20 -8 3 -6 5 3 5 8 1 21
10 27 20 10 15 9 20 -2 25 -8 3 -15 15 -15 27 0 16 5 20 20 16 11 -3 23 -1 26
4 3 5 9 7 14 4 5 -3 12 -1 15 5 12 20 28 4 41 -40z m-1069 18 c-3 -8 -6 -5 -6
6 -1 11 2 17 5 13 3 -3 4 -12 1 -19z m-724 -38 c3 -11 1 -18 -4 -14 -5 3 -9
12 -9 20 0 20 7 17 13 -6z m653 -51 c-12 -18 -16 -20 -16 -7 0 29 12 50 22 40
7 -7 5 -18 -6 -33z m67 11 c-3 -11 -7 -20 -9 -20 -2 0 -4 9 -4 20 0 11 4 20 9
20 5 0 7 -9 4 -20z m-1498 -50 c3 -5 -1 -10 -10 -10 -9 0 -13 5 -10 10 3 6 8
10 10 10 2 0 7 -4 10 -10z m1695 -19 c7 -2 -23 -21 -32 -21 -5 0 -8 6 -8 14 0
8 8 13 18 11 9 -2 19 -4 22 -4z m-1030 -56 c0 -8 -2 -15 -4 -15 -2 0 -6 7 -10
15 -3 8 -1 15 4 15 6 0 10 -7 10 -15z m-36 -47 c3 -23 16 -37 30 -32 9 3 20
-7 30 -27 9 -18 15 -34 13 -35 -1 -2 -25 17 -51 41 -35 31 -47 48 -42 61 7 18
16 15 20 -8z m36 12 c0 -5 -2 -10 -4 -10 -3 0 -8 5 -11 10 -3 6 -1 10 4 10 6
0 11 -4 11 -10z m-230 -20 c0 -5 -2 -10 -4 -10 -3 0 -8 5 -11 10 -3 6 -1 10 4
10 6 0 11 -4 11 -10z m1325 0 c-3 -5 -12 -10 -18 -10 -7 0 -6 4 3 10 19 12 23
12 15 0z m145 -25 c-33 -19 -46 -19 -30 0 7 8 22 15 34 15 20 -1 20 -2 -4 -15z
m-150 -25 c0 -5 -5 -10 -11 -10 -5 0 -7 5 -4 10 3 6 8 10 11 10 2 0 4 -4 4
-10z m390 6 c0 -3 -4 -8 -10 -11 -5 -3 -10 -1 -10 4 0 6 5 11 10 11 6 0 10 -2
10 -4z m-342 -24 c-21 -10 -39 -24 -42 -32 -3 -11 -4 -10 -5 3 -1 17 48 47 74
46 6 -1 -7 -8 -27 -17z m371 -13 c-8 -5 -18 -9 -24 -9 -5 0 -3 5 5 10 8 5 11
10 5 10 -5 0 -3 5 5 10 10 6 16 6 19 -1 2 -6 -3 -15 -10 -20z m-2042 15 c-3
-3 -12 -4 -19 -1 -8 3 -5 6 6 6 11 1 17 -2 13 -5z m378 -3 c-3 -6 4 -15 16
-21 11 -7 18 -14 16 -17 -7 -6 -56 29 -57 40 0 4 7 7 16 7 8 0 13 -4 9 -9z
m-257 -26 c4 -4 -8 -4 -27 0 -26 5 -32 4 -26 -5 6 -10 1 -11 -19 -6 -17 4 -25
3 -22 -3 3 -5 0 -12 -6 -15 -9 -4 -8 -5 2 -4 26 3 90 -13 90 -22 0 -6 10 -6
26 0 29 11 81 13 70 3 -3 -4 -14 -8 -24 -9 -9 -2 -36 -6 -59 -10 -50 -8 -136
3 -127 17 5 9 -16 8 -141 -7 -29 -3 -36 -1 -25 6 8 5 28 10 43 10 16 0 26 4
22 10 -4 6 7 10 24 10 42 0 40 20 -1 21 -31 1 -32 1 -8 9 30 10 197 6 208 -5z
m1975 8 c-7 -2 -19 -2 -25 0 -7 3 -2 5 12 5 14 0 19 -2 13 -5z m-78 -23 c-3
-5 -12 -10 -18 -10 -7 0 -6 4 3 10 19 12 23 12 15 0z m162 4 c-3 -3 -12 -4
-19 -1 -8 3 -5 6 6 6 11 1 17 -2 13 -5z m-2482 -14 c17 -7 14 -9 -13 -9 -20
-1 -31 3 -27 9 7 12 13 12 40 0z m2255 -4 c0 -2 -7 -7 -16 -10 -8 -3 -12 -2
-9 4 6 10 25 14 25 6z m148 -7 c20 11 42 -2 28 -16 -9 -10 -66 -11 -60 -2 3 5
0 9 -6 9 -6 0 -8 5 -4 11 5 8 9 8 14 -1 6 -9 13 -9 28 -1z m-1695 -31 c29 -6
38 8 10 15 -15 4 -15 5 -2 6 16 1 59 -30 59 -43 0 -4 -9 -2 -20 4 -11 6 -20 9
-20 6 0 -2 -16 0 -35 4 -22 5 -35 4 -35 -2 0 -6 -7 -5 -15 2 -13 10 -13 15 -3
21 7 4 17 4 23 0 5 -5 22 -11 38 -13z m1207 12 c0 -5 -5 -10 -11 -10 -5 0 -7
5 -4 10 3 6 8 10 11 10 2 0 4 -4 4 -10z m27 -10 c-1 -12 -5 -16 -10 -11 -5 5
-6 14 -3 20 11 16 15 13 13 -9z m94 13 c-11 -5 -11 -7 0 -14 9 -5 3 -7 -16 -5
-42 5 -43 7 -15 16 28 9 52 11 31 3z m122 0 c-7 -2 -21 -2 -30 0 -10 3 -4 5
12 5 17 0 24 -2 18 -5z m42 -3 c-3 -5 -12 -10 -18 -10 -7 0 -6 4 3 10 19 12
23 12 15 0z m102 4 c-3 -3 -12 -4 -19 -1 -8 3 -5 6 6 6 11 1 17 -2 13 -5z
m198 -4 c3 -5 -1 -10 -9 -10 -8 0 -18 5 -21 10 -3 6 1 10 9 10 8 0 18 -4 21
-10z m-2397 -24 c-8 -7 -29 -21 -47 -31 -23 -11 -30 -19 -22 -25 10 -5 9 -9
-3 -13 -13 -5 -16 1 -16 27 0 31 3 34 43 43 59 15 60 15 45 -1z m752 4 c0 -5
-2 -10 -4 -10 -3 0 -8 5 -11 10 -3 6 -1 10 4 10 6 0 11 -4 11 -10z m1697 4
c-3 -3 -12 -4 -19 -1 -8 3 -5 6 6 6 11 1 17 -2 13 -5z m-2197 -13 c19 -6 8
-10 -50 -19 -41 -6 -88 -9 -105 -6 -22 3 -25 2 -11 -4 14 -6 16 -11 8 -16 -7
-4 -17 -4 -23 0 -6 3 -14 2 -18 -3 -3 -6 -17 -13 -31 -17 -24 -7 -24 -6 -6 8
19 16 19 16 -2 16 -32 0 -27 17 6 18 75 3 161 15 156 23 -6 10 40 10 76 0z
m1950 -1 c0 -5 -7 -10 -16 -10 -8 0 -12 5 -9 10 3 6 10 10 16 10 5 0 9 -4 9
-10z m-1811 -9 c24 -15 1 -31 -42 -29 l-42 1 45 7 45 7 -55 3 c-47 2 -51 3
-25 10 42 11 58 11 74 1z m1566 -11 c3 -6 -1 -7 -9 -4 -18 7 -21 14 -7 14 6 0
13 -4 16 -10z m47 -6 c-13 -9 -26 -13 -29 -10 -4 3 -1 6 6 6 7 0 9 5 6 10 -3
6 4 10 17 10 l22 0 -22 -16z m148 12 c0 -3 -4 -8 -10 -11 -5 -3 -10 -1 -10 4
0 6 5 11 10 11 6 0 10 -2 10 -4z m-1876 -14 c3 -5 -11 -14 -30 -21 -18 -7 -34
-17 -34 -22 0 -5 -9 -9 -19 -9 -11 0 -23 -4 -26 -10 -3 -5 -13 -10 -21 -10 -8
0 -12 5 -9 10 4 6 -7 10 -24 10 -17 0 -31 -4 -31 -10 0 -5 -10 -15 -22 -21
-23 -12 -23 -12 -5 9 19 20 18 21 -5 16 -22 -5 -22 -4 3 10 15 9 42 16 60 18
19 1 39 5 45 10 7 5 28 10 48 12 20 2 39 6 43 10 9 8 21 8 27 -2z m416 -7 l25
-14 -37 -1 c-36 0 -47 8 -31 23 9 9 14 8 43 -8z m1100 5 c0 -5 -7 -10 -16 -10
-8 0 -12 5 -9 10 3 6 10 10 16 10 5 0 9 -4 9 -10z m139 -11 c-15 -9 -32 -2
-24 11 3 5 13 6 21 3 12 -4 13 -8 3 -14z m334 1 c3 -11 10 -20 17 -20 6 0 8 5
4 12 -13 21 122 -7 201 -42 11 -5 27 -11 35 -13 8 -2 -2 -8 -23 -12 -27 -5
-35 -10 -25 -16 8 -6 9 -9 1 -9 -6 0 -19 7 -28 16 -11 12 -19 13 -29 5 -15
-13 -124 2 -140 20 -8 8 -2 9 21 6 18 -3 35 -1 39 4 3 5 -7 9 -21 9 -31 0 -96
31 -77 37 6 3 10 9 6 14 -3 5 -1 9 4 9 5 0 12 -9 15 -20z m-1753 -26 c19 -19
6 -17 -60 6 l-55 20 50 -6 c28 -4 57 -12 65 -20z m1300 6 c-13 -24 -36 -26
-44 -4 -4 12 -1 14 13 9 11 -3 22 -1 26 5 11 19 16 10 5 -10z m318 -5 c-2 -3
-20 -7 -39 -10 l-34 -6 35 14 c33 12 50 13 38 2z m69 9 c-3 -3 -12 -4 -19 -1
-8 3 -5 6 6 6 11 1 17 -2 13 -5z m-1610 -10 c-3 -3 -12 -4 -19 -1 -8 3 -5 6 6
6 11 1 17 -2 13 -5z m177 -3 c3 -5 -8 -11 -24 -13 -30 -5 -41 6 -17 15 20 9
35 8 41 -2z m1126 -1 c11 -8 7 -9 -15 -4 -37 8 -45 14 -19 14 10 0 26 -5 34
-10z m-1933 -15 c0 -8 -6 -15 -12 -15 -6 0 -12 7 -12 15 0 8 6 15 12 15 6 0
12 -7 12 -15z m678 5 c9 -14 -22 -43 -36 -34 -8 5 -6 10 5 16 9 5 14 13 11 19
-4 5 -2 9 4 9 5 0 13 -5 16 -10z m1205 -10 c-13 -8 -13 -10 -1 -10 11 0 9 -4
-5 -14 -10 -8 -21 -10 -22 -5 -2 5 -8 7 -13 3 -5 -3 -9 2 -9 10 0 14 17 22 50
25 13 1 13 0 0 -9z m-1080 -4 c0 -3 -4 -8 -10 -11 -5 -3 -10 -1 -10 4 0 6 5
11 10 11 6 0 10 -2 10 -4z m1403 -3 c-7 -2 -21 -2 -30 0 -10 3 -4 5 12 5 17 0
24 -2 18 -5z m-1433 -13 c0 -5 -4 -10 -10 -10 -5 0 -10 5 -10 10 0 6 5 10 10
10 6 0 10 -4 10 -10z m1585 -21 l20 -8 -20 0 c-11 0 -33 6 -50 14 l-30 14 30
-6 c17 -3 39 -10 50 -14z m-1650 1 c3 -5 -3 -10 -14 -10 -12 0 -21 5 -21 10 0
6 6 10 14 10 8 0 18 -4 21 -10z m-607 -19 c29 -25 28 -31 -4 -31 -18 0 -25 4
-21 14 3 7 0 19 -6 25 -18 18 6 12 31 -8z m1798 4 c-11 -8 -22 -12 -25 -9 -6
6 19 24 34 24 6 -1 1 -7 -9 -15z m519 -5 c3 -5 2 -10 -4 -10 -5 0 -13 5 -16
10 -3 6 -2 10 4 10 5 0 13 -4 16 -10z m-88 -15 c5 -8 26 -23 48 -34 32 -16 35
-20 18 -21 l-23 0 20 -20 c11 -11 26 -20 34 -20 8 0 17 -4 21 -9 3 -6 -14 -8
-42 -6 l-48 3 33 -14 c35 -15 43 -25 14 -18 -9 3 -28 0 -42 -5 -20 -9 -15 -10
30 -7 30 2 69 8 85 12 l30 7 -41 -41 c-23 -23 -47 -42 -54 -42 -7 0 -1 11 14
25 32 30 33 39 4 29 -13 -4 -47 -6 -75 -5 -43 1 -53 -2 -53 -15 0 -11 -6 -15
-20 -11 -11 3 -18 0 -17 -6 1 -5 -9 -13 -23 -17 -16 -5 -1 -8 43 -7 37 0 70 4
74 10 3 5 -3 6 -16 2 -12 -4 -21 -2 -21 4 0 6 8 11 18 11 9 0 28 3 41 7 25 6
25 6 5 -14 -16 -17 -78 -53 -91 -53 -2 0 -1 5 2 10 4 6 -7 10 -27 10 -30 -1
-31 -2 -15 -15 18 -13 17 -14 -5 -17 -13 -2 -23 -9 -23 -16 0 -8 -13 -20 -30
-26 l-30 -13 24 -7 c18 -6 21 -10 10 -17 -8 -5 -21 -8 -29 -8 -10 0 -8 3 5 9
18 8 17 9 -7 9 -14 1 -34 -2 -44 -6 -16 -6 -16 -7 2 -15 13 -6 8 -7 -16 -3
-32 5 -33 4 -15 -9 11 -9 27 -16 35 -16 10 -1 9 -4 -5 -11 -15 -7 -11 -8 16
-4 20 3 47 1 60 -5 24 -10 24 -11 1 -6 -13 2 -37 0 -55 -6 -18 -5 -48 -10 -67
-10 -31 0 -32 0 -10 -7 l25 -7 -22 -8 c-13 -4 -23 -12 -23 -17 0 -13 9 -11 26
6 10 10 33 15 67 14 29 -1 44 -3 34 -6 -9 -2 -15 -9 -12 -14 4 -5 -2 -9 -13
-9 -10 0 -27 -10 -38 -22 -18 -21 -18 -21 0 -15 10 4 38 12 62 18 24 6 44 16
44 22 0 6 2 8 5 5 9 -9 -29 -77 -42 -78 -7 0 -10 7 -7 15 7 17 -4 19 -40 6
-19 -8 -30 -6 -51 11 -14 11 -29 17 -33 13 -4 -4 1 -12 11 -19 9 -7 17 -23 17
-35 0 -18 6 -21 43 -22 l42 -1 -54 -13 c-57 -14 -109 -8 -61 7 20 6 18 7 -8 3
-18 -3 -40 -12 -48 -20 -17 -16 -13 -18 26 -15 21 2 22 0 11 -14 -12 -14 -11
-16 8 -16 11 0 21 -5 21 -11 0 -6 -7 -8 -16 -5 -39 15 -64 18 -64 7 0 -6 9
-11 19 -11 11 0 22 -4 25 -9 3 -4 -16 -7 -42 -5 -43 3 -45 2 -28 -11 11 -8 15
-15 10 -15 -6 0 -14 4 -19 8 -6 4 -28 5 -50 1 l-40 -6 38 -2 c46 -1 49 -19 5
-23 -18 -2 -32 -8 -31 -14 1 -7 -6 -10 -17 -7 -23 6 -26 19 -7 26 6 2 -5 6
-25 8 -34 5 -38 3 -38 -18 0 -16 5 -22 18 -21 26 3 92 -13 92 -22 0 -5 -12
-11 -27 -14 -16 -2 -5 -3 22 -2 42 2 51 0 51 -14 0 -14 -8 -16 -43 -12 -24 2
-43 0 -43 -5 0 -5 15 -8 33 -6 26 3 28 1 12 -6 -19 -9 -18 -10 5 -11 14 -2 32
-2 40 -2 8 1 3 -4 -12 -11 -16 -6 -28 -14 -28 -18 0 -10 84 -6 92 5 4 6 11 7
15 2 4 -4 -2 -15 -15 -23 -21 -15 -21 -16 -5 -29 16 -13 13 -14 -25 -10 -34 4
-49 1 -64 -14 -21 -19 -17 -40 8 -40 8 0 14 -4 14 -9 0 -5 21 -13 48 -19 41
-8 43 -10 15 -11 -18 0 -33 -6 -33 -13 0 -6 -6 -4 -13 7 -10 12 -16 14 -21 7
-4 -7 -17 -12 -29 -12 -19 0 -20 1 -3 13 16 12 16 14 2 26 -13 11 -26 11 -69
2 -28 -7 -64 -15 -79 -18 -15 -3 -33 -11 -39 -19 -6 -8 -19 -14 -27 -14 -12 0
-13 -3 -4 -12 9 -9 15 -9 24 0 7 7 22 12 34 12 12 0 27 7 34 15 18 21 29 19
23 -5 -4 -14 -14 -20 -34 -20 -16 0 -29 -5 -29 -11 0 -5 -4 -7 -10 -4 -5 3
-10 2 -10 -4 0 -12 57 -4 114 15 22 7 52 10 68 7 26 -5 27 -7 11 -18 -10 -7
-22 -11 -28 -8 -5 4 -7 3 -3 -2 11 -12 -11 -35 -32 -35 -10 0 -20 -5 -22 -11
-2 -6 -35 -12 -78 -13 -41 -1 -84 -7 -95 -14 -19 -11 -19 -11 -1 -12 11 0 28
-8 38 -17 14 -13 21 -14 30 -5 7 7 21 12 32 11 20 0 20 -1 -1 -11 -13 -6 -23
-15 -23 -20 0 -5 4 -7 9 -4 12 8 41 -4 41 -16 0 -6 -7 -8 -15 -4 -8 3 -14 2
-14 -2 5 -31 -2 -34 -58 -27 -32 4 -64 12 -70 17 -9 7 -13 7 -13 0 0 -16 -69
-25 -86 -11 -12 10 -11 16 9 43 13 17 28 42 32 56 4 14 16 39 26 56 22 36 24
55 7 51 -16 -3 -12 46 7 88 25 56 28 75 11 75 -23 0 -20 21 4 27 20 5 20 6 1
22 -37 32 -12 72 49 80 5 0 7 7 4 15 -3 7 2 21 11 30 20 19 33 86 17 86 -6 0
-9 9 -7 20 2 11 0 22 -5 25 -6 3 -6 15 0 29 5 13 6 26 3 29 -8 9 8 48 18 42 5
-4 9 1 9 10 0 12 4 14 19 5 33 -17 38 -11 7 9 l-29 20 36 -3 c20 -2 34 1 31 5
-3 5 -13 9 -23 9 -14 0 -16 7 -13 37 9 76 17 80 160 85 113 4 133 7 182 31 59
29 112 77 116 105 2 15 0 14 -15 -3 -33 -38 -76 -73 -100 -80 -17 -5 -21 -4
-16 5 10 17 -16 32 -32 18 -7 -6 -41 -12 -75 -15 -49 -4 -73 0 -110 16 -55 24
-63 49 -18 58 17 3 30 9 30 14 0 20 27 7 43 -21 17 -29 35 -35 81 -30 11 1 15
-3 12 -9 -12 -18 9 -12 32 9 12 11 26 20 31 20 6 0 17 15 26 33 18 39 45 58
74 50 26 -7 26 -17 0 -54 -11 -16 -18 -29 -15 -29 4 0 22 25 42 56 34 53 59
71 34 24 -6 -11 -10 -26 -7 -33 2 -6 17 17 33 51 16 34 37 65 47 68 9 3 17 12
17 20 0 18 17 18 27 -1z m179 -12 c-7 -7 -26 7 -26 19 0 6 6 6 15 -2 9 -7 13
-15 11 -17z m-2496 7 c0 -5 -7 -10 -15 -10 -8 0 -15 5 -15 10 0 6 7 10 15 10
8 0 15 -4 15 -10z m1890 -4 c0 -2 -7 -7 -16 -10 -8 -3 -12 -2 -9 4 6 10 25 14
25 6z m-1892 -41 c-3 -3 -13 -2 -22 1 -14 5 -15 9 -4 15 13 8 36 -6 26 -16z
m2453 14 c-16 -6 -28 -6 -35 1 -7 7 1 10 25 9 32 0 33 -1 10 -10z m79 1 c12
-8 11 -10 -7 -10 -13 0 -23 5 -23 10 0 13 11 13 30 0z m-85 -30 c3 -5 -3 -10
-15 -10 -12 0 -18 5 -15 10 3 6 10 10 15 10 5 0 12 -4 15 -10z m-2432 -29 c4
-16 14 -31 24 -34 16 -4 15 -5 -2 -6 -18 -1 -45 36 -45 61 0 21 18 5 23 -21z
m2572 -1 c3 -5 -1 -10 -9 -10 -8 0 -18 5 -21 10 -3 6 1 10 9 10 8 0 18 -4 21
-10z m-40 -20 c6 -10 -34 -25 -42 -16 -4 3 -1 6 7 6 10 0 10 3 1 14 -10 12 -8
13 9 9 11 -3 23 -9 25 -13z m32 -36 c-10 -11 -77 -22 -77 -13 0 5 12 11 28 15
15 3 32 7 37 9 13 3 20 -3 12 -11z m-2503 -33 c-7 -7 -34 21 -28 31 3 5 12 1
19 -9 7 -10 12 -20 9 -22z m2279 2 c-7 -2 -19 -2 -25 0 -7 3 -2 5 12 5 14 0
19 -2 13 -5z m162 -13 c4 -6 -5 -10 -19 -10 -27 0 -35 -15 -13 -23 6 -3 2 -6
-11 -6 -23 -1 -23 6 1 37 11 15 33 16 42 2z m-2035 -10 c0 -5 -4 -10 -10 -10
-5 0 -10 5 -10 10 0 6 5 10 10 10 6 0 10 -4 10 -10z m-355 -20 c-3 -5 -12 -10
-18 -10 -7 0 -6 4 3 10 19 12 23 12 15 0z m2220 -51 c6 0 20 3 33 6 14 5 22 3
22 -4 0 -6 -9 -11 -19 -11 -11 0 -21 -6 -24 -12 -3 -10 -7 -10 -20 0 -10 9
-27 11 -46 7 -17 -4 -36 -3 -43 1 -18 11 21 24 57 19 17 -3 35 -6 40 -6z m108
-6 c-7 -2 -21 -2 -30 0 -10 3 -4 5 12 5 17 0 24 -2 18 -5z m87 -13 c0 -5 -2
-10 -4 -10 -3 0 -8 5 -11 10 -3 6 -1 10 4 10 6 0 11 -4 11 -10z m-2450 -26 c0
-2 -7 -4 -15 -4 -8 0 -15 4 -15 10 0 5 7 7 15 4 8 -4 15 -8 15 -10z m2225 -54
c-3 -5 -13 -10 -21 -10 -8 0 -12 5 -9 10 3 6 13 10 21 10 8 0 12 -4 9 -10z
m-2175 -30 c0 -5 -5 -10 -11 -10 -5 0 -7 5 -4 10 3 6 8 10 11 10 2 0 4 -4 4
-10z m130 0 c8 -5 11 -10 5 -10 -5 0 -17 5 -25 10 -8 5 -10 10 -5 10 6 0 17
-5 25 -10z m2060 -4 c0 -2 -7 -6 -15 -10 -8 -3 -15 -1 -15 4 0 6 7 10 15 10 8
0 15 -2 15 -4z m-70 -26 c-8 -6 -22 -10 -30 -9 -9 0 -5 6 10 14 27 14 44 10
20 -5z m75 -10 c4 -6 -6 -10 -22 -10 -22 0 -25 -2 -13 -10 8 -5 11 -10 5 -11
-5 0 -20 -2 -32 -3 -27 -3 -29 6 -7 28 17 18 60 21 69 6z m-1900 -98 c-3 -3
-11 0 -18 7 -9 10 -8 11 6 5 10 -3 15 -9 12 -12z m1670 -12 c3 -5 1 -10 -4
-10 -6 0 -11 5 -11 10 0 6 2 10 4 10 3 0 8 -4 11 -10z m-1602 -47 c-7 -2 -19
-2 -25 0 -7 3 -2 5 12 5 14 0 19 -2 13 -5z m1154 -55 c-3 -8 -6 -5 -6 6 -1 11
2 17 5 13 3 -3 4 -12 1 -19z m447 7 c-4 -8 -12 -15 -19 -15 -7 0 -16 -6 -18
-12 -4 -9 -6 -8 -6 2 -1 8 9 20 22 26 12 7 23 12 24 13 1 0 0 -6 -3 -14z
m-1019 -15 c4 -6 -6 -10 -22 -10 -22 0 -25 2 -13 10 19 12 27 12 35 0z m-402
-7 c-7 -2 -21 -2 -30 0 -10 3 -4 5 12 5 17 0 24 -2 18 -5z m1319 -28 c0 -5 -5
-11 -11 -13 -6 -2 -11 4 -11 13 0 9 5 15 11 13 6 -2 11 -8 11 -13z m-1312 -7
c0 -3 -8 -8 -17 -10 -25 -5 -64 3 -58 11 5 9 75 8 75 -1z m1365 0 c35 -16 32
-28 -5 -18 -33 9 -39 0 -14 -24 14 -14 14 -16 0 -16 -8 0 -14 -6 -12 -12 1 -7
1 -10 -1 -5 -8 12 -25 8 -20 -5 3 -8 -6 -14 -24 -15 -16 -1 -29 1 -29 4 0 14
34 43 52 43 10 0 18 4 18 10 0 5 -14 7 -32 3 -50 -9 -50 -9 -55 4 -2 7 10 11
34 11 24 0 41 6 48 16 12 19 8 19 40 4z m-1385 -38 c0 -5 -5 -10 -11 -10 -5 0
-7 5 -4 10 3 6 8 10 11 10 2 0 4 -4 4 -10z m325 0 c3 -5 -1 -10 -10 -10 -9 0
-13 5 -10 10 3 6 8 10 10 10 2 0 7 -4 10 -10z m582 -12 c-3 -8 -6 -5 -6 6 -1
11 2 17 5 13 3 -3 4 -12 1 -19z m-942 -2 l30 -13 -39 1 c-22 1 -41 7 -44 14
-5 15 14 15 53 -2z m1310 -7 c16 -16 -20 -10 -41 7 -18 14 -18 15 6 8 14 -3
29 -10 35 -15z m138 -26 c-7 -2 -19 -2 -25 0 -7 3 -2 5 12 5 14 0 19 -2 13 -5z
m-86 -44 c-14 -8 -22 -8 -30 0 -8 8 -3 11 19 11 25 -1 27 -2 11 -11z m-1382
-169 c-3 -5 -12 -10 -18 -10 -7 0 -6 4 3 10 19 12 23 12 15 0z m85 -10 c0 -5
-10 -10 -22 -10 -19 0 -20 2 -8 10 19 13 30 13 30 0z m60 -9 c0 -14 -89 -44
-108 -35 -13 6 -10 9 15 12 17 2 37 10 43 18 13 15 50 19 50 5z m1087 3 c-3
-3 -12 -4 -19 -1 -8 3 -5 6 6 6 11 1 17 -2 13 -5z m-1097 -50 c0 -8 -5 -12
-10 -9 -6 4 -8 11 -5 16 9 14 15 11 15 -7z m791 -23 c-14 -25 -24 -26 -42 -5
-11 14 -10 16 11 12 19 -2 25 1 23 16 -1 12 2 15 9 8 7 -7 6 -17 -1 -31z m194
-61 c3 -5 1 -10 -4 -10 -6 0 -11 5 -11 10 0 6 2 10 4 10 3 0 8 -4 11 -10z
m-38 -6 c-3 -3 -12 -4 -19 -1 -8 3 -5 6 6 6 11 1 17 -2 13 -5z m81 -31 c-2
-12 3 -17 15 -15 9 2 17 -2 17 -8 0 -5 -11 -10 -24 -10 -27 0 -44 29 -24 42
18 11 19 10 16 -9z m-828 -72 c0 -5 -7 -12 -16 -15 -22 -9 -24 -8 -24 9 0 8 9
15 20 15 11 0 20 -4 20 -9z m680 -21 c16 -10 15 -11 -37 -15 -33 -3 -45 9 -20
18 20 9 41 7 57 -3z m-656 -6 c8 -3 12 -12 9 -20 -4 -11 -7 -11 -19 1 -23 22
-19 30 10 19z m623 -30 c-3 -3 -12 -4 -19 -1 -8 3 -5 6 6 6 11 1 17 -2 13 -5z
m-127 -24 c0 -5 -2 -10 -4 -10 -3 0 -8 5 -11 10 -3 6 -1 10 4 10 6 0 11 -4 11
-10z"/>
<path d="M3440 3390 c0 -5 5 -10 10 -10 6 0 10 5 10 10 0 6 -4 10 -10 10 -5 0
-10 -4 -10 -10z"/>
<path d="M3311 3304 c0 -11 3 -14 6 -6 3 7 2 16 -1 19 -3 4 -6 -2 -5 -13z"/>
<path d="M3940 3226 c0 -8 4 -17 9 -20 5 -4 7 3 4 14 -6 23 -13 26 -13 6z"/>
<path d="M3592 3210 c0 -14 2 -19 5 -12 2 6 2 18 0 25 -3 6 -5 1 -5 -13z"/>
<path d="M3611 3184 c0 -11 3 -14 6 -6 3 7 2 16 -1 19 -3 4 -6 -2 -5 -13z"/>
<path d="M3694 3191 c3 -5 -2 -12 -11 -15 -9 -4 -20 -2 -23 5 -9 13 -20 -24
-20 -68 0 -17 -5 -35 -10 -38 -15 -9 -2 -25 14 -19 8 3 17 0 22 -7 4 -7 2 -15
-4 -17 -14 -4 -16 -32 -2 -32 9 0 35 78 31 94 -9 37 -11 69 -4 59 11 -16 29
-4 37 27 6 19 5 21 -3 10 -7 -10 -11 -11 -11 -2 0 6 -5 12 -11 12 -5 0 -8 -4
-5 -9z"/>
<path d="M3785 3141 c-14 -28 -14 -30 5 -36 13 -4 27 1 42 15 17 16 18 19 6
15 -14 -6 -18 -2 -18 14 0 30 -17 26 -35 -8z"/>
<path d="M3722 3065 c0 -16 2 -22 5 -12 2 9 2 23 0 30 -3 6 -5 -1 -5 -18z"/>
<path d="M3758 3079 c-10 -5 -18 -21 -18 -34 0 -14 -5 -24 -12 -22 -6 1 -14
-13 -18 -30 -4 -18 -4 -33 1 -33 5 0 9 9 9 20 0 11 7 23 15 26 8 3 20 21 27
40 14 38 22 42 37 17 5 -10 13 -14 18 -10 4 5 -1 15 -11 23 -23 16 -25 17 -48
3z"/>
<path d="M3840 3061 c0 -5 3 -17 6 -26 5 -12 9 -14 14 -4 5 7 6 18 3 26 -6 15
-23 18 -23 4z"/>
<path d="M3940 3024 c-12 -31 -9 -37 14 -28 18 7 22 39 6 49 -6 3 -15 -6 -20
-21z"/>
<path d="M3792 3020 c-6 -11 -12 -26 -12 -34 0 -8 -4 -16 -10 -18 -6 -2 -6
-14 -1 -33 8 -25 9 -26 10 -7 1 12 5 22 11 22 10 0 24 62 18 80 -1 5 -9 1 -16
-10z"/>
<path d="M3997 2988 c-7 -23 -1 -38 14 -38 12 0 12 47 0 54 -5 3 -11 -4 -14
-16z"/>
<path d="M4050 2991 c0 -25 6 -27 13 -6 4 8 2 17 -3 20 -6 4 -10 -3 -10 -14z"/>
<path d="M3820 2960 c0 -5 7 -10 16 -10 8 0 12 5 9 10 -3 6 -10 10 -16 10 -5
0 -9 -4 -9 -10z"/>
<path d="M3737 2908 c-6 -22 7 -38 28 -37 6 0 5 3 -1 5 -7 3 -10 13 -7 23 3
10 0 21 -5 25 -5 3 -12 -4 -15 -16z"/>
<path d="M3786 2883 c-2 -10 -7 -34 -11 -53 -6 -33 -5 -34 10 -16 8 11 15 35
15 53 0 36 -6 43 -14 16z"/>
<path d="M3821 2836 c-1 -38 2 -57 9 -50 5 5 6 29 1 59 l-9 50 -1 -59z"/>
<path d="M3720 2836 c0 -9 -4 -16 -9 -16 -14 0 -38 -62 -39 -103 -1 -21 -4
-42 -7 -47 -4 -6 -2 -10 4 -10 5 0 13 5 16 10 4 6 11 8 16 5 5 -4 9 5 9 19 0
14 -4 26 -10 26 -5 0 -10 6 -10 14 0 22 26 66 35 58 5 -4 5 -1 1 6 -4 7 -3 19
4 27 7 9 8 15 0 20 -5 3 -10 -1 -10 -9z"/>
<path d="M3840 2841 c0 -6 4 -13 10 -16 6 -3 7 1 4 9 -7 18 -14 21 -14 7z"/>
<path d="M3765 2761 c-3 -5 -1 -12 5 -16 5 -3 10 1 10 9 0 18 -6 21 -15 7z"/>
<path d="M3878 2712 c-10 -2 -18 -12 -18 -23 0 -18 1 -18 21 2 23 23 22 27 -3
21z"/>
<path d="M3630 2684 c0 -8 5 -12 10 -9 6 3 10 10 10 16 0 5 -4 9 -10 9 -5 0
-10 -7 -10 -16z"/>
<path d="M3830 2580 c0 -5 5 -10 11 -10 5 0 7 5 4 10 -3 6 -8 10 -11 10 -2 0
-4 -4 -4 -10z"/>
<path d="M3702 2500 c0 -14 2 -19 5 -12 2 6 2 18 0 25 -3 6 -5 1 -5 -13z"/>
<path d="M4131 2494 c0 -11 3 -14 6 -6 3 7 2 16 -1 19 -3 4 -6 -2 -5 -13z"/>
<path d="M4160 2491 c0 -11 -4 -22 -9 -26 -6 -3 -8 -27 -5 -53 4 -30 0 -63
-10 -89 -8 -24 -11 -43 -6 -43 6 0 10 5 10 11 0 5 3 8 8 6 4 -3 8 16 9 41 1
26 7 48 13 50 5 2 10 13 10 23 0 13 -4 17 -11 13 -9 -5 -10 6 -5 40 4 25 5 46
2 46 -3 0 -6 -9 -6 -19z"/>
<path d="M3600 2466 c0 -8 5 -18 10 -21 6 -3 10 1 10 9 0 8 -4 18 -10 21 -5 3
-10 -1 -10 -9z"/>
<path d="M3830 2444 c0 -8 5 -12 10 -9 6 3 10 10 10 16 0 5 -4 9 -10 9 -5 0
-10 -7 -10 -16z"/>
<path d="M3750 2415 c0 -8 2 -15 4 -15 2 0 6 7 10 15 3 8 1 15 -4 15 -6 0 -10
-7 -10 -15z"/>
<path d="M4032 2404 c-9 -10 -9 -14 -1 -14 7 0 9 -9 4 -27 -4 -16 -3 -25 1
-21 4 4 13 3 19 -2 17 -14 31 38 15 54 -8 8 -9 6 -5 -6 4 -9 3 -23 -2 -30 -5
-9 -10 -1 -13 23 -4 31 -7 35 -18 23z"/>
<path d="M3625 2400 c3 -5 8 -10 11 -10 2 0 4 5 4 10 0 6 -5 10 -11 10 -5 0
-7 -4 -4 -10z"/>
<path d="M3559 2350 c-1 -22 -2 -45 -3 -52 -1 -6 4 -13 9 -15 6 -2 10 20 10
52 0 63 -14 76 -16 15z"/>
<path d="M3876 2355 c2 -11 4 -27 5 -35 0 -10 3 -8 9 5 12 27 12 37 1 30 -5
-3 -11 0 -14 7 -2 7 -3 4 -1 -7z"/>
<path d="M4173 2348 c2 -16 0 -28 -6 -28 -6 0 -8 -3 -4 -6 3 -3 12 -2 19 3 12
7 12 12 0 33 l-13 25 4 -27z"/>
<path d="M3591 2330 c0 -33 1 -34 11 -12 8 17 8 26 0 34 -9 9 -12 4 -11 -22z"/>
<path d="M3621 2344 c0 -11 3 -14 6 -6 3 7 2 16 -1 19 -3 4 -6 -2 -5 -13z"/>
<path d="M3365 2330 c-3 -5 -1 -10 4 -10 6 0 11 5 11 10 0 6 -2 10 -4 10 -3 0
-8 -4 -11 -10z"/>
<path d="M3450 2298 c0 -36 4 -35 14 5 4 16 2 27 -4 27 -5 0 -10 -14 -10 -32z"/>
<path d="M3326 2304 c-3 -9 -6 -23 -6 -32 0 -13 3 -12 15 4 16 21 19 44 6 44
-5 0 -12 -7 -15 -16z"/>
<path d="M3482 2300 c0 -14 2 -19 5 -12 2 6 2 18 0 25 -3 6 -5 1 -5 -13z"/>
<path d="M4052 2290 c0 -19 2 -27 5 -17 2 9 2 25 0 35 -3 9 -5 1 -5 -18z"/>
<path d="M4076 2276 c-4 -19 -12 -37 -19 -40 -9 -3 -9 -7 -1 -13 6 -4 13 -15
16 -23 2 -8 8 12 12 44 7 65 2 87 -8 32z"/>
<path d="M3365 2268 c3 -18 9 -53 14 -78 6 -25 11 -63 12 -85 1 -24 3 -31 6
-17 2 12 8 22 13 22 5 0 7 6 4 14 -3 8 -1 17 5 20 14 9 2 36 -14 30 -8 -4 -14
6 -17 30 -2 20 -1 36 3 36 15 0 17 30 3 45 -24 23 -33 18 -29 -17z"/>
<path d="M4031 2284 c0 -11 3 -14 6 -6 3 7 2 16 -1 19 -3 4 -6 -2 -5 -13z"/>
<path d="M3290 2281 c0 -6 5 -13 10 -16 6 -3 10 1 10 9 0 9 -4 16 -10 16 -5 0
-10 -4 -10 -9z"/>
<path d="M3520 2275 c0 -8 2 -15 4 -15 2 0 6 7 10 15 3 8 1 15 -4 15 -6 0 -10
-7 -10 -15z"/>
<path d="M3490 2256 c0 -8 5 -18 10 -21 6 -3 10 3 10 14 0 12 -4 21 -10 21 -5
0 -10 -6 -10 -14z"/>
<path d="M4096 2247 c-3 -12 -6 -31 -6 -41 0 -20 0 -20 15 0 16 22 19 50 6 58
-5 3 -11 -4 -15 -17z"/>
<path d="M4140 2251 c-9 -17 -1 -51 12 -51 6 0 8 11 6 25 -6 29 -5 29 25 14
12 -7 19 -8 15 -4 -4 5 -3 14 2 20 8 9 2 12 -21 11 -17 -1 -34 -7 -39 -15z"/>
<path d="M3551 2226 c-1 -12 -6 -16 -16 -12 -20 7 -20 -30 0 -50 12 -13 15
-12 23 3 5 10 5 32 1 48 -3 17 -7 22 -8 11z"/>
<path d="M3590 2231 c0 -6 5 -13 10 -16 6 -3 10 1 10 9 0 9 -4 16 -10 16 -5 0
-10 -4 -10 -9z"/>
<path d="M3620 2219 c0 -11 5 -17 10 -14 6 3 10 13 10 21 0 8 -4 14 -10 14 -5
0 -10 -9 -10 -21z"/>
<path d="M4021 2224 c0 -11 3 -14 6 -6 3 7 2 16 -1 19 -3 4 -6 -2 -5 -13z"/>
<path d="M3941 2213 c1 -10 5 -29 9 -43 8 -24 8 -24 9 -3 1 16 6 21 16 17 8
-4 15 -1 15 5 0 6 -4 11 -9 11 -5 0 -17 7 -25 16 -15 14 -16 14 -15 -3z"/>
<path d="M3469 2193 c-6 -33 4 -63 17 -51 3 4 2 24 -3 45 l-9 38 -5 -32z"/>
<path d="M3575 2193 c10 -42 22 -47 17 -8 -2 19 -9 35 -14 35 -6 0 -7 -11 -3
-27z"/>
<path d="M3361 2194 c0 -11 3 -14 6 -6 3 7 2 16 -1 19 -3 4 -6 -2 -5 -13z"/>
<path d="M4167 2193 c-4 -3 -7 -11 -7 -17 0 -6 5 -5 12 2 6 6 9 14 7 17 -3 3
-9 2 -12 -2z"/>
<path d="M3441 2164 c0 -11 3 -14 6 -6 3 7 2 16 -1 19 -3 4 -6 -2 -5 -13z"/>
<path d="M4011 2164 c0 -11 3 -14 6 -6 3 7 2 16 -1 19 -3 4 -6 -2 -5 -13z"/>
<path d="M3513 2147 c4 -10 7 -27 7 -38 0 -10 4 -19 9 -19 10 0 -3 58 -15 69
-4 3 -4 -2 -1 -12z"/>
<path d="M3641 2134 c-6 -15 -9 -29 -7 -32 3 -2 10 8 16 23 14 36 7 43 -9 9z"/>
<path d="M4196 2143 c-4 -9 -2 -21 4 -27 7 -7 10 -2 10 17 0 31 -5 34 -14 10z"/>
<path d="M3981 2143 c-1 -6 -4 -20 -7 -30 -5 -17 -5 -17 6 0 6 10 9 23 6 30
-3 9 -5 9 -5 0z"/>
<path d="M3571 2124 c0 -11 3 -14 6 -6 3 7 2 16 -1 19 -3 4 -6 -2 -5 -13z"/>
<path d="M4045 2130 c-4 -7 -1 -16 6 -21 17 -10 26 8 11 23 -6 6 -12 6 -17 -2z"/>
<path d="M3921 2114 c0 -11 3 -14 6 -6 3 7 2 16 -1 19 -3 4 -6 -2 -5 -13z"/>
<path d="M3941 2114 c0 -11 3 -14 6 -6 3 7 2 16 -1 19 -3 4 -6 -2 -5 -13z"/>
<path d="M3320 2093 c0 -13 5 -23 10 -23 13 0 13 11 0 30 -8 12 -10 11 -10 -7z"/>
<path d="M3487 2103 c-12 -12 -7 -22 8 -17 8 4 15 10 15 15 0 11 -14 12 -23 2z"/>
<path d="M4030 2091 c0 -6 4 -13 10 -16 6 -3 7 1 4 9 -7 18 -14 21 -14 7z"/>
<path d="M3433 2082 c-7 -4 -10 -18 -6 -30 7 -27 43 -30 43 -3 0 23 -22 42
-37 33z"/>
<path d="M3564 2072 c-9 -5 -8 -11 2 -20 12 -11 14 -9 14 8 0 22 0 23 -16 12z"/>
<path d="M4012 2060 c0 -14 2 -19 5 -12 2 6 2 18 0 25 -3 6 -5 1 -5 -13z"/>
<path d="M3507 2054 c-8 -8 1 -24 14 -24 5 0 9 7 9 15 0 15 -12 20 -23 9z"/>
<path d="M4043 2040 c-25 -20 -31 -43 -10 -34 13 5 41 44 35 49 -2 2 -13 -5
-25 -15z"/>
<path d="M3411 2045 c-4 -16 0 -110 5 -114 9 -10 10 7 4 64 -4 33 -8 56 -9 50z"/>
<path d="M3884 2020 c3 -14 6 -28 6 -32 0 -15 18 -8 24 9 4 10 4 14 0 10 -5
-4 -14 3 -22 15 l-13 23 5 -25z"/>
<path d="M4065 2020 c-3 -5 1 -10 10 -10 9 0 13 5 10 10 -3 6 -8 10 -10 10 -2
0 -7 -4 -10 -10z"/>
<path d="M4114 2011 c-25 -13 -30 -20 -23 -36 14 -36 11 -51 -7 -29 -14 18
-15 18 -4 -3 13 -27 14 -28 35 -6 16 15 17 15 13 -7 -2 -16 2 -24 15 -26 15
-2 16 0 5 13 -10 12 -9 17 5 28 9 7 17 23 17 36 l-1 24 -15 -25 c-12 -20 -14
-21 -11 -5 3 11 8 28 12 38 9 20 0 20 -41 -2z m3 -43 c-3 -7 -5 -2 -5 12 0 14
2 19 5 13 2 -7 2 -19 0 -25z"/>
<path d="M3442 1980 c13 -21 29 -22 36 -2 2 7 -2 10 -12 6 -9 -3 -16 -1 -16 5
0 6 -5 11 -10 11 -6 0 -5 -8 2 -20z"/>
<path d="M4052 1984 c-7 -8 -8 -14 -3 -14 10 0 25 19 20 25 -2 1 -10 -3 -17
-11z"/>
<path d="M4010 1965 c0 -11 24 -55 30 -55 13 0 6 25 -12 43 -10 9 -18 15 -18
12z"/>
<path d="M3350 1945 c0 -8 5 -15 10 -15 6 0 10 7 10 15 0 8 -4 15 -10 15 -5 0
-10 -7 -10 -15z"/>
<path d="M2618 1913 c7 -3 16 -2 19 1 4 3 -2 6 -13 5 -11 0 -14 -3 -6 -6z"/>
<path d="M3884 1898 c-4 -7 -4 -10 1 -6 4 4 14 3 22 -4 7 -6 17 -8 20 -4 4 4
1 11 -7 16 -20 13 -27 12 -36 -2z"/>
<path d="M4010 1875 c0 -8 2 -15 4 -15 2 0 6 7 10 15 3 8 1 15 -4 15 -6 0 -10
-7 -10 -15z"/>
<path d="M3860 1858 c0 -12 38 -10 45 2 4 6 -5 9 -19 8 -15 -1 -26 -6 -26 -10z"/>
<path d="M2685 1850 c3 -5 10 -10 16 -10 5 0 9 5 9 10 0 6 -7 10 -16 10 -8 0
-12 -4 -9 -10z"/>
<path d="M3504 1835 c-3 -8 -4 -20 -2 -27 3 -7 7 -1 10 15 6 29 1 36 -8 12z"/>
<path d="M3842 1824 c-2 -25 12 -32 24 -13 4 8 9 7 15 -2 7 -11 9 -11 9 2 0 9
-10 20 -23 26 -20 9 -23 8 -25 -13z"/>
<path d="M2640 1800 c-24 -8 -24 -8 7 -9 17 -1 35 4 38 9 7 11 -9 11 -45 0z"/>
<path d="M2735 1800 c3 -5 8 -10 11 -10 2 0 4 5 4 10 0 6 -5 10 -11 10 -5 0
-7 -4 -4 -10z"/>
<path d="M3470 1780 c0 -5 5 -10 10 -10 6 0 10 5 10 10 0 6 -4 10 -10 10 -5 0
-10 -4 -10 -10z"/>
<path d="M3780 1770 c0 -6 7 -13 15 -17 24 -9 27 1 5 15 -13 8 -20 8 -20 2z"/>
<path d="M2678 1763 c7 -3 16 -2 19 1 4 3 -2 6 -13 5 -11 0 -14 -3 -6 -6z"/>
<path d="M3837 1741 c-2 -11 0 -24 6 -30 14 -14 47 -14 47 -1 0 6 -9 10 -21
10 -14 0 -19 5 -16 15 4 8 2 17 -2 20 -5 2 -11 -4 -14 -14z"/>
<path d="M2660 1739 c0 -17 133 -20 138 -4 2 5 -2 11 -10 13 -9 2 -8 0 2 -8
12 -9 9 -10 -15 -5 -71 16 -115 17 -115 4z"/>
<path d="M3740 1740 c0 -5 5 -10 11 -10 5 0 7 5 4 10 -3 6 -8 10 -11 10 -2 0
-4 -4 -4 -10z"/>
<path d="M2758 1697 c39 -7 56 -7 65 2 8 8 -5 11 -53 10 l-65 -2 53 -10z"/>
<path d="M3610 1691 c0 -6 5 -13 10 -16 6 -3 10 1 10 9 0 9 -4 16 -10 16 -5 0
-10 -4 -10 -9z"/>
<path d="M3710 1656 c0 -9 5 -16 10 -16 6 0 10 4 10 9 0 6 -4 13 -10 16 -5 3
-10 -1 -10 -9z"/>
<path d="M2895 1650 c-3 -5 1 -10 10 -10 9 0 13 5 10 10 -3 6 -8 10 -10 10 -2
0 -7 -4 -10 -10z"/>
<path d="M3826 1615 c4 -8 8 -15 10 -15 2 0 4 7 4 15 0 8 -4 15 -10 15 -5 0
-7 -7 -4 -15z"/>
<path d="M2858 1613 c7 -3 16 -2 19 1 4 3 -2 6 -13 5 -11 0 -14 -3 -6 -6z"/>
<path d="M3686 1603 c-6 -14 -5 -15 5 -6 7 7 10 15 7 18 -3 3 -9 -2 -12 -12z"/>
<path d="M2915 1599 c-15 -6 -11 -8 18 -8 20 -1 37 1 37 3 0 9 -37 12 -55 5z"/>
<path d="M3847 1593 c-4 -3 -7 -11 -7 -17 0 -6 5 -5 12 2 6 6 9 14 7 17 -3 3
-9 2 -12 -2z"/>
<path d="M3630 1580 c0 -5 5 -10 10 -10 6 0 10 5 10 10 0 6 -4 10 -10 10 -5 0
-10 -4 -10 -10z"/>
<path d="M3585 1561 c-3 -6 4 -9 15 -8 11 1 20 5 20 9 0 11 -28 10 -35 -1z"/>
<path d="M3520 1550 c0 -5 5 -10 11 -10 5 0 7 5 4 10 -3 6 -8 10 -11 10 -2 0
-4 -4 -4 -10z"/>
<path d="M2938 1543 c7 -3 16 -2 19 1 4 3 -2 6 -13 5 -11 0 -14 -3 -6 -6z"/>
<path d="M3640 1535 c0 -8 5 -15 10 -15 6 0 10 7 10 15 0 8 -4 15 -10 15 -5 0
-10 -7 -10 -15z"/>
<path d="M3850 1540 c0 -5 5 -10 10 -10 6 0 10 5 10 10 0 6 -4 10 -10 10 -5 0
-10 -4 -10 -10z"/>
<path d="M3598 1497 c-4 -20 0 -26 19 -30 19 -3 23 0 23 20 0 15 -4 22 -11 17
-6 -3 -15 -1 -19 6 -5 8 -9 3 -12 -13z"/>
<path d="M3850 1510 c0 -5 5 -10 11 -10 5 0 7 5 4 10 -3 6 -8 10 -11 10 -2 0
-4 -4 -4 -10z"/>
<path d="M3510 1478 c0 -9 5 -20 10 -23 13 -8 13 5 0 25 -8 13 -10 13 -10 -2z"/>
<path d="M3900 1480 c0 -5 5 -10 10 -10 6 0 10 5 10 10 0 6 -4 10 -10 10 -5 0
-10 -4 -10 -10z"/>
<path d="M3861 1457 c-11 -14 -5 -27 11 -27 5 0 6 5 3 10 -3 6 -1 10 4 10 6 0
11 5 11 10 0 14 -16 12 -29 -3z"/>
<path d="M3543 1433 c0 -20 20 -43 37 -43 6 0 8 -5 5 -11 -5 -7 -15 -5 -31 5
-29 20 -38 20 -30 1 3 -10 -1 -15 -12 -16 -9 0 -4 -4 11 -9 15 -5 41 -5 58 0
27 8 29 7 24 -11 -5 -14 -2 -19 10 -19 12 0 16 6 12 20 -3 13 0 20 9 20 9 0
14 -12 15 -32 1 -31 1 -32 9 -8 8 24 8 24 9 3 1 -13 6 -23 11 -23 6 0 8 11 4
25 -6 23 -3 25 25 25 25 0 29 3 24 18 -14 35 -63 57 -63 27 0 -8 -4 -15 -10
-15 -5 0 -10 11 -10 24 0 29 -18 44 -26 22 -8 -22 -28 -20 -20 2 6 16 5 16 -8
0 -13 -18 -32 -25 -22 -9 3 5 -1 12 -10 15 -21 8 -21 8 -21 -11z m167 -53 c0
-5 -4 -10 -10 -10 -5 0 -10 5 -10 10 0 6 5 10 10 10 6 0 10 -4 10 -10z"/>
<path d="M3830 1435 c0 -8 4 -15 10 -15 5 0 7 7 4 15 -4 8 -8 15 -10 15 -2 0
-4 -7 -4 -15z"/>
<path d="M3800 1430 c0 -5 5 -10 11 -10 5 0 7 5 4 10 -3 6 -8 10 -11 10 -2 0
-4 -4 -4 -10z"/>
<path d="M3769 1401 c11 -7 9 -14 -15 -35 l-29 -25 31 -1 c24 0 31 4 30 17 0
10 9 22 22 28 31 14 28 20 -16 22 -25 2 -32 0 -23 -6z"/>
<path d="M3841 1390 c-12 -11 -27 -17 -32 -14 -5 3 -9 -4 -9 -15 0 -12 5 -21
10 -21 6 0 10 4 10 9 0 5 10 13 23 18 20 7 28 9 51 12 9 1 -13 31 -23 31 -3
-1 -17 -9 -30 -20z"/>
<path d="M3230 1348 c-21 -13 -30 -23 -22 -26 7 -2 21 3 31 12 10 9 23 16 29
16 7 0 12 5 12 10 0 15 -11 12 -50 -12z"/>
<path d="M3855 1360 c-3 -5 1 -10 9 -10 9 0 16 5 16 10 0 6 -4 10 -9 10 -6 0
-13 -4 -16 -10z"/>
<path d="M3998 1343 c6 -2 18 -2 25 0 6 3 1 5 -13 5 -14 0 -19 -2 -12 -5z"/>
<path d="M3901 1324 c0 -11 3 -14 6 -6 3 7 2 16 -1 19 -3 4 -6 -2 -5 -13z"/>
<path d="M3860 1320 c0 -5 5 -10 10 -10 6 0 10 5 10 10 0 6 -4 10 -10 10 -5 0
-10 -4 -10 -10z"/>
<path d="M4000 1310 c0 -5 5 -10 10 -10 6 0 10 5 10 10 0 6 -4 10 -10 10 -5 0
-10 -4 -10 -10z"/>
<path d="M3260 1235 c-8 -9 -8 -15 -2 -15 12 0 26 19 19 26 -2 2 -10 -2 -17
-11z"/>
<path d="M3220 1220 c0 -5 5 -10 11 -10 5 0 7 5 4 10 -3 6 -8 10 -11 10 -2 0
-4 -4 -4 -10z"/>
<path d="M3370 1160 c0 -5 5 -10 10 -10 6 0 10 5 10 10 0 6 -4 10 -10 10 -5 0
-10 -4 -10 -10z"/>
<path d="M3320 1061 c0 -5 11 -11 25 -13 20 -4 23 -3 14 8 -13 16 -39 19 -39
5z"/>
<path d="M3270 929 c0 -14 19 -20 45 -13 37 9 31 22 -10 21 -19 -1 -35 -4 -35
-8z"/>
<path d="M3325 900 l-30 -8 27 -1 c15 0 30 4 33 9 3 6 5 9 3 9 -2 -1 -16 -5
-33 -9z"/>
<path d="M3330 831 c0 -5 14 -17 32 -25 34 -17 62 -22 38 -6 -8 5 -10 10 -5
10 12 0 -44 30 -56 30 -5 0 -9 -4 -9 -9z"/>
<path d="M3360 2603 c0 -12 5 -25 10 -28 6 -4 8 -10 5 -15 -3 -5 0 -12 6 -16
9 -5 10 2 5 27 -8 41 -26 63 -26 32z"/>
<path d="M2408 2273 c7 -3 16 -2 19 1 4 3 -2 6 -13 5 -11 0 -14 -3 -6 -6z"/>
<path d="M2448 2263 c7 -3 16 -2 19 1 4 3 -2 6 -13 5 -11 0 -14 -3 -6 -6z"/>
<path d="M5080 2120 c0 -5 5 -10 10 -10 6 0 10 5 10 10 0 6 -4 10 -10 10 -5 0
-10 -4 -10 -10z"/>
<path d="M2710 2170 c-13 -8 -12 -10 3 -10 9 0 17 5 17 10 0 12 -1 12 -20 0z"/>
<path d="M4958 2023 c7 -3 16 -2 19 1 4 3 -2 6 -13 5 -11 0 -14 -3 -6 -6z"/>
<path d="M4818 1873 c7 -3 16 -2 19 1 4 3 -2 6 -13 5 -11 0 -14 -3 -6 -6z"/>
<path d="M4765 1840 c-3 -5 1 -10 9 -10 9 0 16 5 16 10 0 6 -4 10 -9 10 -6 0
-13 -4 -16 -10z"/>
<path d="M4543 1763 c-13 -2 -23 -9 -23 -14 0 -13 13 -11 36 6 10 8 17 14 14
13 -3 0 -15 -3 -27 -5z"/>
<path d="M4210 1560 c0 -5 5 -10 10 -10 6 0 10 5 10 10 0 6 -4 10 -10 10 -5 0
-10 -4 -10 -10z"/>
<path d="M4455 1470 c3 -5 10 -10 16 -10 5 0 9 5 9 10 0 6 -7 10 -16 10 -8 0
-12 -4 -9 -10z"/>
<path d="M4214 1445 c21 -7 43 -20 47 -27 7 -10 9 -10 9 2 0 15 -52 40 -81 40
-8 -1 4 -7 25 -15z"/>
<path d="M4195 1430 c3 -5 11 -10 16 -10 6 0 7 5 4 10 -3 6 -11 10 -16 10 -6
0 -7 -4 -4 -10z"/>
<path d="M4475 1410 c-3 -6 1 -7 9 -4 18 7 21 14 7 14 -6 0 -13 -4 -16 -10z"/>
<path d="M4185 1399 c12 -18 57 -31 69 -19 7 7 3 10 -11 10 -12 0 -25 5 -28
10 -3 6 -13 10 -21 10 -8 0 -12 -5 -9 -11z"/>
<path d="M4378 1393 c7 -3 16 -2 19 1 4 3 -2 6 -13 5 -11 0 -14 -3 -6 -6z"/>
<path d="M4193 1357 c-3 -5 -2 -7 4 -4 5 3 17 -3 26 -14 20 -23 30 -24 46 -5
9 11 4 15 -29 24 -28 7 -42 7 -47 -1z"/>
<path d="M4309 1338 c-10 -25 -10 -31 2 -39 30 -19 102 -5 97 19 -2 8 -10 17
-18 19 -13 4 -13 3 0 -6 11 -8 3 -11 -34 -11 -50 0 -55 15 -9 22 l23 3 -24 11
c-22 10 -26 9 -37 -18z m64 -35 c-7 -2 -19 -2 -25 0 -7 3 -2 5 12 5 14 0 19
-2 13 -5z"/>
<path d="M4260 1301 c0 -5 7 -11 14 -14 10 -4 13 -1 9 9 -6 15 -23 19 -23 5z"/>
<path d="M4120 1240 c-8 -5 -11 -12 -7 -16 4 -4 13 -2 19 4 15 15 7 24 -12 12z"/>
<path d="M4100 1189 c0 -5 5 -7 10 -4 6 3 10 8 10 11 0 2 -4 4 -10 4 -5 0 -10
-5 -10 -11z"/>
<path d="M4140 1109 c0 -5 5 -7 10 -4 6 3 10 8 10 11 0 2 -4 4 -10 4 -5 0 -10
-5 -10 -11z"/>
<path d="M4310 1095 c-7 -8 -24 -15 -37 -15 -15 0 -33 -10 -45 -25 -11 -14
-26 -25 -34 -25 -8 0 -14 -4 -14 -9 0 -18 48 2 59 26 14 30 37 25 33 -7 -2
-22 -1 -23 16 -6 12 10 27 14 38 10 11 -3 15 -2 9 3 -14 12 -16 46 -2 55 9 5
9 8 1 8 -6 0 -17 -7 -24 -15z"/>
<path d="M4155 1080 c3 -5 13 -10 21 -10 8 0 14 5 14 10 0 6 -9 10 -21 10 -11
0 -17 -4 -14 -10z"/>
<path d="M4358 1053 c7 -3 16 -2 19 1 4 3 -2 6 -13 5 -11 0 -14 -3 -6 -6z"/>
<path d="M4146 989 c-16 -16 -17 -19 -4 -19 9 0 19 7 22 16 9 24 4 24 -18 3z"/>
<path d="M4245 990 c3 -5 10 -10 16 -10 5 0 9 5 9 10 0 6 -7 10 -16 10 -8 0
-12 -4 -9 -10z"/>
<path d="M4130 854 c0 -17 14 -18 28 -1 8 10 6 13 -9 14 -10 1 -19 -5 -19 -13z"/>
<path d="M4190 866 c0 -2 13 -6 29 -8 17 -2 28 -1 25 4 -5 8 -54 12 -54 4z"/>
<path d="M4060 743 c14 -10 33 -16 43 -15 10 2 25 -2 33 -9 8 -6 17 -9 21 -5
3 3 1 6 -5 6 -7 0 -12 6 -12 14 0 13 -41 26 -83 26 -20 0 -20 -1 3 -17z"/>
<path d="M4010 740 c0 -5 5 -10 10 -10 6 0 10 5 10 10 0 6 -4 10 -10 10 -5 0
-10 -4 -10 -10z"/>
<path d="M3985 720 c3 -5 8 -10 11 -10 2 0 4 5 4 10 0 6 -5 10 -11 10 -5 0 -7
-4 -4 -10z"/>
</g>
</svg>
