<?xml version="1.0" standalone="no"?>
<!DOCTYPE svg PUBLIC "-//W3C//DTD SVG 20010904//EN"
 "http://www.w3.org/TR/2001/REC-SVG-20010904/DTD/svg10.dtd">
<svg version="1.0" xmlns="http://www.w3.org/2000/svg"
 width="360.000000pt" height="360.000000pt" viewBox="0 0 360.000000 360.000000"
 preserveAspectRatio="xMidYMid meet">

<g transform="translate(0.000000,360.000000) scale(0.100000,-0.100000)"
fill="#000000" stroke="none">
<path d="M1065 2742 c-3 -3 -5 -50 -5 -104 l0 -98 -82 0 c-134 0 -128 5 -128
-114 l0 -101 -88 0 c-48 1 -95 -1 -105 -3 -16 -4 -17 -25 -15 -316 l3 -311 30
-2 c17 0 63 -2 103 -2 l72 -1 0 -100 c0 -73 3 -100 13 -101 31 -2 97 -5 145
-7 l52 -2 0 -100 0 -100 105 0 105 0 0 -105 0 -105 105 0 105 0 0 -105 0 -105
105 0 105 0 0 -105 0 -105 105 0 105 0 0 105 0 105 105 0 105 0 0 105 0 105
105 0 105 0 0 105 0 105 105 0 105 0 0 99 0 99 105 7 105 7 0 99 0 99 93 0
c50 0 98 4 105 8 9 7 12 77 10 318 l-3 309 -102 0 -103 0 0 101 c0 84 -3 103
-16 108 -9 3 -56 6 -105 6 l-89 0 0 100 c0 72 -3 100 -12 102 -7 1 -149 2
-315 2 l-302 1 -3 -104 -3 -104 -90 1 c-49 0 -96 1 -102 1 -10 1 -13 29 -13
104 l0 102 -310 1 c-171 0 -312 -2 -315 -4z m214 -594 c0 -40 0 -88 0 -105 l1
-33 100 0 100 0 0 -105 0 -105 -105 0 -104 0 -3 103 -3 102 -102 3 -103 3 0
104 0 105 109 0 110 0 0 -72z"/>
<path d="M2015 182 c-16 -2 -33 -9 -37 -15 -6 -9 -8 -9 -8 0 0 9 -16 12 -52
10 -45 -2 -53 -5 -53 -22 0 -23 4 -25 45 -25 23 0 30 4 30 20 0 11 5 20 10 20
6 0 10 -9 10 -20 0 -11 6 -19 13 -17 6 1 11 -4 10 -10 -2 -8 7 -13 22 -13 21
0 25 5 25 28 1 23 2 24 11 10 14 -25 37 -22 42 5 4 21 4 21 6 1 1 -28 26 -37
46 -18 8 9 15 11 15 5 0 -6 11 -11 25 -11 20 0 25 5 25 25 0 23 -3 24 -57 23
-32 -1 -67 1 -78 4 -11 2 -33 3 -50 0z m-105 -27 c0 -8 -7 -15 -15 -15 -8 0
-15 7 -15 15 0 8 7 15 15 15 8 0 15 -7 15 -15z m110 0 c0 -8 -7 -15 -15 -15
-8 0 -15 7 -15 15 0 8 7 15 15 15 8 0 15 -7 15 -15z m107 9 c-3 -3 -12 -4 -19
-1 -8 3 -5 6 6 6 11 1 17 -2 13 -5z m60 0 c-3 -3 -12 -4 -19 -1 -8 3 -5 6 6 6
11 1 17 -2 13 -5z m-60 -20 c-3 -3 -12 -4 -19 -1 -8 3 -5 6 6 6 11 1 17 -2 13
-5z m60 0 c-3 -3 -12 -4 -19 -1 -8 3 -5 6 6 6 11 1 17 -2 13 -5z"/>
<path d="M1411 163 c0 -11 3 -13 6 -5 7 17 23 15 23 -3 0 -7 -8 -19 -17 -24
-10 -6 -13 -11 -7 -11 18 0 37 28 30 45 -8 21 -36 19 -35 -2z"/>
<path d="M1764 155 c-9 -23 10 -40 25 -22 9 11 8 17 -4 27 -12 10 -16 9 -21
-5z m26 -9 c0 -3 -4 -8 -10 -11 -5 -3 -10 -1 -10 4 0 6 5 11 10 11 6 0 10 -2
10 -4z"/>
<path d="M1460 144 c0 -7 5 -16 12 -20 7 -4 8 -3 4 4 -4 7 -2 12 3 12 6 0 11
4 11 8 0 5 -7 9 -15 9 -8 0 -15 -6 -15 -13z"/>
<path d="M1500 150 c0 -5 5 -10 11 -10 5 0 7 -6 3 -12 -5 -10 -4 -10 6 -1 7 6
9 16 6 22 -9 14 -26 14 -26 1z"/>
<path d="M1560 143 c0 -15 2 -16 10 -3 5 8 12 12 15 8 3 -3 -1 -13 -10 -22
-14 -13 -14 -16 -2 -16 14 0 27 20 27 41 0 5 -9 9 -20 9 -12 0 -20 -7 -20 -17z"/>
<path d="M1631 144 c0 -11 3 -14 6 -6 3 7 2 16 -1 19 -3 4 -6 -2 -5 -13z"/>
<path d="M1651 143 c0 -11 3 -13 6 -5 2 6 9 10 14 6 5 -3 9 0 9 5 0 6 -7 11
-15 11 -8 0 -15 -8 -14 -17z"/>
<path d="M1694 149 c-8 -14 11 -33 25 -25 6 4 11 14 11 22 0 16 -26 19 -36 3z
m26 -9 c0 -5 -4 -10 -10 -10 -5 0 -10 5 -10 10 0 6 5 10 10 10 6 0 10 -4 10
-10z"/>
<path d="M1807 130 c-3 -11 -2 -20 3 -20 12 0 21 28 11 35 -5 2 -11 -4 -14
-15z"/>
</g>
</svg>
